<svg xmlns="http://www.w3.org/2000/svg" xmlns:xlink="http://www.w3.org/1999/xlink"><symbol viewBox="0 0 32 32" id="gel-icon-360-image"><path d="M12.4 21.6c-4.9-.9-8.7-3.5-8.7-6.4 0-1.7 1.4-3.4 3.5-4.6L4.5 8.2C1.7 10 0 12.5 0 15.3c0 4.8 5.3 8.8 12.4 9.8V31l8.6-7.9-8.6-7.9v6.4z"/><path d="M24 6.5V2H12V1h-2v1H8v12h16v-3.7c2.6 1.3 4.3 3.1 4.3 5s-1.7 3.7-4.2 4.9V24c4.7-1.8 7.9-5 7.9-8.7 0-3.8-3.2-7-8-8.8zM12 6h-2V4h2v2zm6 6c-2.2 0-4-1.8-4-4s1.8-4 4-4 4 1.8 4 4-1.8 4-4 4z"/><circle cx="18" cy="8" r="2.2"/></symbol><symbol viewBox="0 0 32 32" id="gel-icon-alarm"><path d="M17 17.4V11h-2v7.6l6.6 3.8 1-1.8M29.2 9c1.7-2.9.7-6.5-2.2-8.2C24.1-.9 20.5.1 18.8 3l10.4 6zM2.8 9C1.1 6.1 2.1 2.5 5 .8 7.9-.9 11.5.1 13.2 3L2.8 9z"/><path d="M29 17.5C29 10.3 23.2 4 16 4S3 10.3 3 17.5c0 3.4 1.3 6.7 3.4 9L4 29l2.8 2.9 2.7-2.7c1.9 1.1 4.1 1.7 6.5 1.7 2.3 0 4.5-.6 6.5-1.7l2.7 2.7 2.8-2.8-2.4-2.7c2.1-2.2 3.4-5.5 3.4-8.9zM6.5 18c0-2.5 1-5.2 2.8-7 1.8-1.8 4.2-3 6.7-3 5.2 0 9.5 4.5 9.5 9.8s-4.3 9.6-9.5 9.6-9.5-4.2-9.5-9.4z"/></symbol><symbol viewBox="0 0 32 32" id="gel-icon-alert"><path d="M16 2L0 30h32L16 2zm2 25h-4v-4h4v4zm-4-6V11h4v10h-4z"/></symbol><symbol viewBox="0 0 32 32" id="gel-icon-audio"><path d="M21.4 4.8L20 6.2c2.5 2.5 4 6 4 9.8s-1.5 7.3-4 9.8l1.4 1.4C24.2 24.3 26 20.4 26 16c0-4.4-1.8-8.3-4.6-11.2z"/><path d="M25.6.5L24.2 2c3.6 3.6 5.8 8.6 5.8 14s-2.2 10.4-5.8 14l1.4 1.4C29.6 27.5 32 22 32 16S29.6 4.5 25.6.5zM16 4l-6 6H0v12h10l6 6"/></symbol><symbol viewBox="0 0 32 32" id="gel-icon-back-to-start"><path d="M2 0v32h3V0m25 0L5 16l25 16v-8l-13.3-8L30 8"/></symbol><symbol viewBox="0 0 32 32" id="gel-icon-blog"><path d="M7 18.6v6h6l.7-.6-6-6"/><path d="M26-.4L9.3 16.4l6 6L26 11.6v18H2v-24h12v-2H0v28h28v-22l4-4"/></symbol><symbol viewBox="0 0 32 32" id="gel-icon-calendar"><path d="M24 13h4v4h-4zM22 0h2v5h-2zM8 0h2v5H8zm11 13h4v4h-4zm-5 0h4v4h-4zm-5 0h4v4H9zm15 5h4v4h-4zm-5 0h4v4h-4zm-5 0h4v4h-4zm-5 0h4v4H9zm-5 0h4v4H4zm15 5h4v4h-4zm-5 0h4v4h-4zm-5 0h4v4H9zm-5 0h4v4H4z"/><path d="M2 9h30V2h-7v4h-4V2H11v4H7V2H0v7m30 2v19H2V11H0v21h32V11"/></symbol><symbol viewBox="0 0 32 32" id="gel-icon-chapters"><path d="M8 0h24v8H8zm8 12h16v8H16zM8 24h24v8H8zm-8-1l12-7L0 9"/></symbol><symbol viewBox="0 0 32 32" id="gel-icon-comments"><path d="M0 0v32l8-8h24V0H0zm4 10h18v4H4v-4zm24 10H4v-4h24v4zm0-12H4V4h24v4z"/></symbol><symbol viewBox="0 0 32 32" id="gel-icon-countdown"><path d="M16.4 18.4V12h-2v7.6l6.6 3.8 1-1.8m2.982-16.725l4.242 4.242-2.828 2.83-4.243-4.244z"/><path d="M15 6C7.8 6 2 11.8 2 19s5.8 13 13 13 13-5.8 13-13S22.2 6 15 6zm0 22.5c-5.2 0-9.5-4.3-9.5-9.5S9.8 9.5 15 9.5s9.5 4.3 9.5 9.5-4.3 9.5-9.5 9.5zM15 6c1.7 0 3-1.3 3-3s-1.3-3-3-3-3 1.3-3 3 1.3 3 3 3zm0-5c1.1 0 2 .9 2 2s-.9 2-2 2-2-.9-2-2 .9-2 2-2z"/></symbol><symbol viewBox="0 0 32 32" id="gel-icon-degraded"><path d="M30 0h-9l2 2h7v28H2V2h7.2l8.6 8.6L9.4 19l7.8 9.5V19l8.2-8.1L14.5 0H0v32h32V0"/></symbol><symbol viewBox="0 0 32 32" id="gel-icon-digg"><path fill="none" d="M3.1 13.4v5.9H5s.4 0 .4-.4V13H3.5s-.4 0-.4.4z"/><path d="M5.7 6.5s-.4 0-.4.4v3.7h-5s-.4 0-.4.4v10.7h8.2s.4 0 .4-.4V6.5H5.7zm-.3 12.4c0 .4-.4.4-.4.4H3.1v-5.9c0-.4.4-.4.4-.4h1.9v5.9zM9.5 11v10.7h2.8s.4 0 .4-.4V10.6H9.9s-.4 0-.4.4zm.4-4.5s-.4 0-.4.4v2h2.8s.4 0 .4-.4v-2H9.9zm13.9 4.1s-.4 0-.4.4v10.7h5.4v1.4h-5s-.4 0-.4.4v2h8.2s.4 0 .4-.4V10.6h-8.2zm5 8.3c0 .4-.4.4-.4.4h-1.9v-5.9c0-.4.4-.4.4-.4h1.9v5.9zm-14.7-8.3s-.4 0-.4.4v10.7h5.4v1.4h-5s-.4 0-.4.4v2H22s.4 0 .4-.4V10.6h-8.3zm5.1 8.3c0 .4-.4.4-.4.4h-1.9v-5.9c0-.4.4-.4.4-.4h1.9v5.9z"/></symbol><symbol viewBox="0 0 32 32" id="gel-icon-down"><path d="M16 29L32 3h-7.2L16 18.3 7.2 3H0"/></symbol><symbol viewBox="0 0 32 32" id="gel-icon-download"><path d="M28.2 12.2L19 21.4V0h-6v21.4l-9.2-9.2L0 16l14 14H2v-6H0v8h16l16-16m-2 14h-8l-2 2h12v-8h-2"/></symbol><symbol viewBox="0 0 32 32" id="gel-icon-duration"><path d="M17 15.4V6h-2v10.6l8.8 5.1 1-1.8"/><path d="M16 4c6.6 0 12 5.4 12 12s-5.4 12-12 12S4 22.6 4 16 9.4 4 16 4m0-4C7.2 0 0 7.2 0 16s7.2 16 16 16 16-7.2 16-16S24.8 0 16 0z"/></symbol><symbol viewBox="0 0 32 32" id="gel-icon-email"><path d="M16 19.4l16-15V3H0v26h32V8l-4 4v13H4V8.2l12 11.2zm0-2.8L5.8 7h20.4L16 16.6z"/></symbol><symbol viewBox="0 0 32 32" id="gel-icon-embed"><path d="M10 6.2V0L0 10l10 10v-6.2L6.2 10M22 13.8V20l10-10L22 0v6.2l3.8 3.8m-14.397 3.183l7.78-7.778 1.413 1.414-7.778 7.776z"/></symbol><symbol viewBox="0 0 32 32" id="gel-icon-expires"><path d="M16 0c-.3 0-.7 0-1 .1v4c.3-.1.7-.1 1-.1 6.6 0 12 5.4 12 12s-5.4 12-12 12S4 22.6 4 16H0c0 8.8 7.2 16 16 16s16-7.2 16-16S24.8 0 16 0z"/><path d="M23.8 21.7l1-1.8-7.8-4.5V6h-2v10.6"/></symbol><symbol viewBox="0 0 32 32" id="gel-icon-export"><path d="M6 0v22.5l-6 6L3.5 32 22 13.5V21h5V5H11v5h7.5L8 20.5V2h22v22H15.8l-2 2H32V0"/></symbol><symbol viewBox="0 0 32 32" id="gel-icon-external-link"><path d="M12 0v5h11.5l-5 5H0v22h22V17.5l-2 2V30H2V12h14.5l-7.8 7.7 3.6 3.6L27 8.5V20h5V0"/></symbol><symbol viewBox="0 0 32 32" id="gel-icon-facebook"><path d="M12.1 32V17H8v-5.4h4.1V7c0-3.6 2.4-7 8-7 2.2 0 3.9.2 3.9.2l-.1 5.1h-3.6c-2 0-2.3.9-2.3 2.4v3.9h6l-.3 5.4H18v15h-5.9z"/></symbol><symbol viewBox="0 0 32 32" id="gel-icon-forward"><path d="M27 0h3v32h-3zm0 16L2 32v-8.2L15.3 16 2 8.2V0"/></symbol><symbol viewBox="0 0 32 32" id="gel-icon-games-console"><path d="M8 7.5c-1.9 0-3.5 1.6-3.5 3.5s1.6 3.5 3.5 3.5 3.5-1.6 3.5-3.5S9.9 7.5 8 7.5z"/><path d="M24 3c-2 0-3.9.8-5.3 2h-5.4C11.9 3.8 10 3 8 3c-4.4 0-8 3.6-8 8v18h6l6.4-10h7.1L26 29h6V11c0-4.4-3.6-8-8-8zm0 2c1.1 0 2 .9 2 2s-.9 2-2 2-2-.9-2-2 .9-2 2-2zM8 17c-3.3 0-6-2.7-6-6s2.7-6 6-6 6 2.7 6 6-2.7 6-6 6zm12-4c-1.1 0-2-.9-2-2s.9-2 2-2 2 .9 2 2-.9 2-2 2zm4 4c-1.1 0-2-.9-2-2s.9-2 2-2 2 .9 2 2-.9 2-2 2zm4-4c-1.1 0-2-.9-2-2s.9-2 2-2 2 .9 2 2-.9 2-2 2z"/></symbol><symbol viewBox="0 0 32 32" id="gel-icon-google-plus"><path d="M32 14.2h-4.2V10h-2.2v4.2h-4.2v2.1h4.2v4.2h2.2v-4.2H32M18.6 1.7h-2.5C17 2.5 19 4 19 7.2c0 3.1-1.8 4.6-3.6 6-.6.5-1.2 1.1-1.2 2.1 0 .9.6 1.4 1.1 1.8l1.5 1.2c1.9 1.6 3.6 3 3.6 5.9 0 3.9-4 8-11.4 8-6.1-.2-9-3.1-9-6.2 0-1.5.8-3.6 3.3-5.1 2.7-1.6 6.2-1.8 8.2-1.9-.6-.8-1.3-1.5-1.3-2.8 0-.7.2-1.1.4-1.6-.5 0-.9.1-1.4.1-4.5 0-7.1-3.3-7.1-6.6 0-1.9.6-4.2 2.4-5.8C7 .2 10.1 0 12.4 0h8.9l-2.7 1.7zM7.4 20.8c-.9.3-3.7 1.3-3.7 4.3s3 5.1 7.5 5.1c4.1 0 6.3-1.9 6.3-4.5 0-2.1-1.4-3.3-4.7-5.5h-1c-.3-.1-2.6 0-4.4.6M9.8 1.5c-1.1 0-2.3.4-3 1.3-.7.9-.9 2.1-.9 3.2 0 2.8 1.7 7.5 5.3 7.5 1.1 0 2.2-.6 2.9-1.3 1-1 1.1-2.2 1.1-3 0-3-1.8-7.7-5.4-7.7" fill="#010101"/></symbol><symbol viewBox="0 0 32 32" id="gel-icon-grid"><path d="M0 0h8v8H0zm0 12h8v8H0zm0 12h8v8H0zM12 0h8v8h-8zm0 12h8v8h-8zm0 12h8v8h-8zM24 0h8v8h-8zm0 12h8v8h-8zm0 12h8v8h-8z"/></symbol><symbol viewBox="0 0 32 32" id="gel-icon-help"><path d="M16 0C7.2 0 0 7.2 0 16s7.2 16 16 16 16-7.2 16-16S24.8 0 16 0zm2 26h-4v-4h4v4zm2.6-10c-1.2.9-2.6 1.6-2.6 3.2v.8h-4v-1c0-2.4 1.4-3.4 2.5-4.3 1.1-.8 2.5-1.5 2.5-2.9 0-1.7-1.4-2.4-2.8-2.4-2 0-3.7 1.6-3.7 3.6H9c.1-4 3.1-6.8 7-6.8 5.1 0 7.3 3.1 7.3 5.2 0 2.7-1.5 3.7-2.7 4.6z"/></symbol><symbol viewBox="0 0 32 31.9" id="gel-icon-home"><path d="M16 5.4l-12 12v14.5h9V22h6v9.9h9V17.4l-12-12"/><path d="M28 12V4h-4v4l-6.6-6.6L16 0l-1.4 1.4L0 16v2.8l16-16 16 16V16"/></symbol><symbol viewBox="0 0 32 32" id="gel-icon-image"><path d="M9 5V3H4v2H0v24h32V5H9zm-2.5 8C5.1 13 4 11.9 4 10.5S5.1 8 6.5 8 9 9.1 9 10.5 7.9 13 6.5 13zM20 26c-5 0-9-4-9-9s4-9 9-9 9 4 9 9-4 9-9 9z"/><path d="M20 11.5c-3 0-5.5 2.5-5.5 5.5s2.5 5.5 5.5 5.5 5.5-2.5 5.5-5.5-2.5-5.5-5.5-5.5z"/></symbol><symbol viewBox="0 0 32 32" id="gel-icon-info"><path d="M16 0C7.2 0 0 7.2 0 16s7.2 16 16 16 16-7.2 16-16S24.8 0 16 0zm2 25h-4V13h4v12zm0-14h-4V7h4v4z"/></symbol><symbol viewBox="0 0 32 32" id="gel-icon-iplayer"><path d="M11 0H3v8h8V4.7L24 16 11 27.3V12H3v20h8l18-16"/></symbol><symbol viewBox="0 0 32 32" id="gel-icon-link"><path d="M18.5 4.6l-1.7-1.7C13-1 6.7-1 2.9 2.9-1 6.7-1 13 2.9 16.8l3.4 3.4c3.8 3.8 10.1 3.8 13.9 0l-3.5-3.5c-1.9 1.9-5 1.9-7 0l-3.4-3.4c-1.9-1.9-1.9-5 0-7 1.9-1.9 5-1.9 7 0L15 8l3.5-3.4z"/><path d="M13.4 27.4l1.7 1.7c3.8 3.8 10.1 3.8 13.9 0 3.8-3.8 4-10 .1-13.8l-3.5-3.5c-3.7-3.8-10-3.8-13.8 0l3.5 3.5c1.9-1.9 5-1.9 7 0l3.4 3.4c1.9 1.9 1.9 5 0 7-1.9 1.9-5 1.9-7 0L17 24l-3.6 3.4z"/></symbol><symbol viewBox="0 0 32 32" id="gel-icon-linkedin"><path d="M7.3 31.5V10.6H.4v20.9h6.9zM3.8 7.7c2.4 0 3.9-1.6 3.9-3.6S6.2.5 3.9.5C1.5.5 0 2.1 0 4.1s1.5 3.6 3.8 3.6zm7.3 23.8H18V19.8c0-.6 0-1.3.2-1.7.5-1.2 1.6-2.5 3.5-2.5 2.5 0 3.5 1.9 3.5 4.7v11.2H32v-12c0-6.4-3.4-9.4-7.9-9.4-3.7 0-5.3 2.1-6.2 3.5v-3H11c.2 1.9.1 20.9.1 20.9z"/></symbol><symbol viewBox="0 0 32 32" id="gel-icon-list"><path d="M0 0v8h32V0M0 17v3h32v-8H0m0 17v3h32v-8H0"/></symbol><symbol viewBox="0 0 32 32" id="gel-icon-list-thumb"><path d="M0 0h8v8H0zm0 12h8v8H0zm0 12h8v8H0zM11 0v8h21V0M11 17v3h21v-8H11m0 17v3h21v-8H11"/></symbol><symbol viewBox="0 0 32 32" id="gel-icon-live-restart"><path d="M16 4h-1l2-2-2-2-6 6 6 6 2-2-2-2h1c5.5 0 10 4.5 10 10s-4.5 10-10 10S6 23.5 6 18H2c0 7.7 6.3 14 14 14s14-6.3 14-14S23.7 4 16 4"/><path d="M10 10L6 6l4-4-2-2-6 6 6 6"/></symbol><symbol viewBox="0 0 32 32" id="gel-icon-loading"><path d="M29.8 8l-3.5 2c1 1.8 1.6 3.8 1.6 6 0 6.6-5.4 12-12 12S4 22.6 4 16 9.4 4 16 4V0C7.2 0 0 7.2 0 16s7.2 16 16 16 16-7.2 16-16c0-2.9-.8-5.6-2.2-8z"/></symbol><symbol viewBox="0 0 32 32" id="gel-icon-location"><path d="M16 0C7.2 0 0 7.2 0 16s7.2 16 16 16 16-7.2 16-16S24.8 0 16 0zm2 27.8V23h-4v4.8C9 27 5 23 4.2 18H9v-4H4.2C5 9 9 5 14 4.2V9h4V4.2C23 5 27 9 27.8 14H23v4h4.8c-.8 5-4.8 9-9.8 9.8z"/></symbol><symbol viewBox="0 0 32 31.9" id="gel-icon-lock"><path d="M25 13.9V8.3C25 3.7 20.9 0 16 0S7 3.7 7 8.3v5.6H3v18h26v-18h-4zM12 8.3c0-2 1.8-3.7 4-3.7s4 1.6 4 3.7v5.6h-8V8.3z"/></symbol><symbol viewBox="0 0 32 32" id="gel-icon-mobile"><path d="M22 0v2H6v30h20V0h-4zm-9 28h-3v-2h3v2zm0-4h-3v-2h3v2zm0-4h-3v-2h3v2zm5 8h-4v-2h4v2zm0-4h-4v-2h4v2zm0-4h-4v-2h4v2zm4 8h-3v-2h3v2zm0-4h-3v-2h3v2zm0-4h-3v-2h3v2zm0-5H10V6h12v9z"/></symbol><symbol viewBox="0 0 32 32" id="gel-icon-more-horizontal"><path d="M0 12h8v8H0zm12 0h8v8h-8zm12 0h8v8h-8z"/></symbol><symbol viewBox="0 0 32 32" id="gel-icon-more-vertical"><path d="M12 0h8v8h-8zm0 12h8v8h-8zm0 12h8v8h-8z"/></symbol><symbol viewBox="0 0 56 32" id="gel-icon-new"><path d="M0 0h56v32H0z"/><path fill="#FFF" d="M4 7.9h4.3l5.6 9.8V7.9h3.9v16h-4.3L8 13.9v10H4v-16zm16.2 0h11.4v3.3h-7.2V14h6.5v3.2h-6.5v3h7.4v3.6H20.2V7.9zm28.3 16h-3.8l-2-11-2 11h-3.9l-3.9-16h3.8l2.1 11.7 2.1-11.7h3.6l2.1 11.7 2.1-11.7h3.8l-4 16z"/></symbol><symbol viewBox="0 0 32 32" id="gel-icon-newsletter"><path d="M5 3h22v12h3V0H2v15h3"/><path d="M10 12h12v3H10zm0 4h12v3H10zm0-8h12v3H10z"/><path d="M29.5 16l-.5.3-13 8.1-13-8.1-.5-.3H0v16h32V16h-2.5zM29 29H3V17.5l13 8.1 13-8.1V29z"/></symbol><symbol viewBox="0 0 31.9 32" id="gel-icon-next"><path d="M29 16L3 0v7.2L17.6 16 3 24.8V32"/></symbol><symbol viewBox="0 0 32 32" id="gel-icon-no"><path d="M32 3.5L28.5 0 16 12.5 3.5 0 0 3.5 12.5 16 0 28.5 3.5 32 16 19.5 28.5 32l3.5-3.5L19.5 16"/></symbol><symbol viewBox="0 0 32 32" id="gel-icon-pause"><path d="M3 0h9v32H3zm17 0h9v32h-9z"/></symbol><symbol viewBox="0 0 32 32" id="gel-icon-pc"><path d="M28 4v14H4V5h25m3-4H0v21h32V1zm-5.9 26l2.3 2H3.6l2.3-2h20.2m.9-2H5l-5 4v2h32v-2l-5-4z"/></symbol><symbol viewBox="0 0 32 32" id="gel-icon-pinterest"><path d="M16 0C7.2 0 0 7.2 0 16c0 6.6 3.9 12.2 9.6 14.7 0-1.1 0-2.5.3-3.7.3-1.3 2.1-8.7 2.1-8.7s-.5-1-.5-2.5c0-2.4 1.4-4.1 3.1-4.1 1.5 0 2.2 1.1 2.2 2.4 0 1.5-.9 3.7-1.4 5.7-.4 1.7.9 3.1 2.5 3.1 3 0 5.1-3.9 5.1-8.5 0-3.5-2.4-6.1-6.7-6.1-4.9 0-7.9 3.6-7.9 7.7 0 1.4.4 2.4 1.1 3.1.3.4.3.5.2.9-.1.3-.3 1-.3 1.3-.1.4-.4.6-.8.4-2.2-.9-3.3-3.4-3.3-6.1 0-4.5 3.8-10 11.4-10 6.1 0 10.1 4.4 10.1 9.2 0 6.3-3.5 11-8.6 11-1.7 0-3.4-.9-3.9-2 0 0-.9 3.7-1.1 4.4-.3 1.2-1 2.5-1.6 3.4 1.4.4 3 .7 4.5.7 8.8 0 16-7.2 16-16S24.8 0 16 0z"/></symbol><symbol viewBox="0 0 32 32" id="gel-icon-podcast"><circle cx="16" cy="14" r="4"/><path d="M16 6c2.2 0 4.2.9 5.7 2.3l1.4-1.4C21.3 5.1 18.8 4 16 4s-5.3 1.1-7.1 2.9l1.4 1.4C11.8 6.9 13.8 6 16 6z"/><path d="M16 2c3.3 0 6.3 1.3 8.5 3.5l1.4-1.4C23.4 1.6 19.9 0 16 0c-3.9 0-7.4 1.6-9.9 4.1l1.4 1.4C9.7 3.3 12.7 2 16 2zm3 30h-6l-3-13h12"/></symbol><symbol viewBox="0 0 32 32" id="gel-icon-previous"><path d="M3 16l26 16v-7.2L14.4 16 29 7.2V0"/></symbol><symbol viewBox="0 0 32 32" id="gel-icon-print"><path d="M26 12V5l-5-5H6v12H0v12.1L5.9 30H6v2h20v-2h.1l5.9-5.9V12h-6zM8 12V2h12.2L24 5.8V18H8v-6zm0 18v-5h16v5H8z"/></symbol><symbol viewBox="0 0 32 32" id="gel-icon-quote"><path d="M0 17v15h15V17H7c.2-5.9 2.4-8.8 8-9.9V0C6.7 1.2.2 8.3 0 17zm32-9.9V0c-8.3 1.2-14.8 8.3-15 17v15h15V17h-8c.2-5.9 2.4-8.8 8-9.9z"/></symbol><symbol viewBox="0 0 32 32" id="gel-icon-recommend"><path d="M16 28C9.4 28 4 22.6 4 16S9.4 4 16 4c3.1 0 6 1.2 8.1 3.2l-8.7 10.4-5.4-3.8-3 3.5 8.8 6.8 11-13.1 2.8-3.3C26.8 3.1 21.8 0 16 0 7.2 0 0 7.2 0 16s7.2 16 16 16 16-7.2 16-16h-4c0 6.6-5.4 12-12 12"/></symbol><symbol viewBox="0 0 32 32" id="gel-icon-refresh"><path d="M32 0H20v12h4V7.1c2.4 2.2 4 5.4 4 8.9 0 6.6-5.4 12-12 12v4c8.8 0 16-7.2 16-16 0-4.8-2.1-9.1-5.4-12H32V0zM8 24.9c-2.4-2.2-4-5.4-4-8.9C4 9.4 9.4 4 16 4V0C7.2 0 0 7.2 0 16c0 4.8 2.1 9.1 5.4 12H0v4h12V20H8v4.9z"/></symbol><symbol viewBox="0 0 32 32" id="gel-icon-rewind"><path d="M2 0h3v32H2zm3 16L30 0v8.2L16.7 16 30 23.8V32"/></symbol><symbol viewBox="0 0 32 32" id="gel-icon-rss"><circle cx="5" cy="27" r="5"/><path d="M25 32h7C32 14.3 17.7 0 0 0v7c13.8 0 25 11.2 25 25z"/><path d="M15 32h7c0-12.1-9.9-22-22-22v7c8.3 0 15 6.7 15 15z"/></symbol><symbol viewBox="0 0 32 32" id="gel-icon-search"><path d="M32 28.5l-8.2-8.2c3.4-5.1 2.9-12-1.6-16.4C19.7 1.3 16.3 0 13 0 9.7 0 6.3 1.3 3.8 3.8c-5.1 5.1-5.1 13.3 0 18.4C6.3 24.7 9.7 26 13 26c2.5 0 5.1-.7 7.3-2.2l8.2 8.2 3.5-3.5zM6.6 19.4C4.9 17.7 4 15.4 4 13s.9-4.7 2.6-6.4C8.3 4.9 10.6 4 13 4c2.4 0 4.7.9 6.4 2.6 3.5 3.5 3.5 9.2 0 12.7-1.7 1.7-4 2.6-6.4 2.6s-4.7-.8-6.4-2.5z"/></symbol><symbol viewBox="0 0 32 32" id="gel-icon-settings"><path d="M31.7 19.7l-3.6-1.5c.3-1.5.3-3 0-4.5l3.6-1.5c.3-.1.4-.4.3-.7l-1.6-3.8c-.1-.3-.4-.4-.7-.3L26.1 9c-.9-1.3-1.9-2.3-3.2-3.2l1.5-3.6c.1-.3 0-.6-.3-.7L20.4 0c-.3-.1-.6 0-.7.3l-1.5 3.6c-1.5-.3-3-.3-4.5 0L12.2.3c-.1-.3-.4-.4-.7-.3L7.8 1.6c-.2.1-.4.4-.3.7L9 5.9C7.8 6.7 6.7 7.8 5.9 9L2.3 7.5c-.3-.1-.6.1-.7.3L0 11.6c-.1.3 0 .6.3.7l3.6 1.5c-.3 1.5-.3 3 0 4.5L.3 19.8c-.3.1-.4.4-.3.7l1.6 3.8c.1.3.4.4.7.3L5.9 23c.9 1.3 1.9 2.3 3.2 3.2l-1.5 3.6c-.1.3 0 .6.3.7l3.8 1.6c.3.1.6 0 .7-.3l1.5-3.6c1.5.3 3 .3 4.5 0l1.5 3.6c.1.3.4.4.7.3l3.8-1.6c.3-.1.4-.4.3-.7L23 26.1c1.3-.9 2.3-1.9 3.2-3.2l3.6 1.5c.3.1.6 0 .7-.3l1.6-3.8c0-.2-.2-.5-.4-.6zm-14.2 0c-2 .8-4.4-.1-5.2-2.2-.8-2 .1-4.4 2.2-5.2 2-.8 4.4.1 5.2 2.2.8 2-.1 4.4-2.2 5.2z"/></symbol><symbol viewBox="0 0 32 32" id="gel-icon-share"><path d="M6.8 22.2c1.6 0 3-.7 4-1.8l9 4.8c-.1.4-.2.8-.2 1.3 0 3 2.5 5.5 5.5 5.5s5.5-2.4 5.5-5.5-2.5-5.5-5.5-5.5c-1.6 0-3 .7-4 1.8l-9.5-5.2-.1-2.8 9.7-5.5c1 1 2.3 1.5 3.8 1.5 3 0 5.5-2.5 5.5-5.5S28.2 0 25.2 0s-5.5 2.4-5.5 5.5c0 .6.1 1.1.2 1.6l-9.3 5.7c-1-.9-2.3-1.5-3.8-1.5-3 0-5.5 2.4-5.5 5.5.1 2.9 2.5 5.4 5.5 5.4z"/></symbol><symbol viewBox="0 0 32 32" id="gel-icon-slideshow"><path d="M22 13l-5-3-5-3v12l5-3"/><path d="M30 0H0v26h13.9l-3.5 6H13l2.9-5.1 2.9 5.1h2.6l-3.5-6H32V0h-2zm0 22H2V4h28v18z"/></symbol><symbol viewBox="0 0 32 32" id="gel-icon-stumble-upon"><path d="M16 0C7.2 0 0 7.2 0 16s7.2 16 16 16 16-7.2 16-16S24.8 0 16 0zm0 13c-.8 0-1.5.7-1.6 1.5v3.1c-.1 2.2-1.9 3.9-4.1 3.9-2.2 0-4-1.7-4.1-3.9V16h2.5v1.6c0 .8.7 1.5 1.5 1.5s1.5-.6 1.5-1.5v-3.1c.1-2.2 1.9-3.9 4.1-3.9 2.2 0 4 1.7 4 3.9l-1.5.4-1-.4c.2-.9-.5-1.5-1.3-1.5zm9.7 4.6c-.1 2.2-1.9 3.9-4.1 3.9-2.2 0-4-1.7-4.1-3.9V16l1 .4L20 16v1.6c0 .8.7 1.5 1.5 1.5s1.5-.6 1.5-1.5V16h2.5v1.6z"/></symbol><symbol viewBox="0 0 32 32" id="gel-icon-tablet"><path d="M2 0v32h28V0H2zm16 30h-4v-2h4v2zm8-4H6V4h20v22z"/></symbol><symbol viewBox="0 0 32 31.9" id="gel-icon-to-bottom"><path d="M0 26.9h32v3H0zm16 0L0 1.9h8.2L16 15.1l7.8-13.2H32"/></symbol><symbol viewBox="0 0 32 31.9" id="gel-icon-to-top"><path d="M0 1.9h32v3H0zm16 3l16 25h-8.2L16 16.6 8.2 29.9H0"/></symbol><symbol viewBox="0 0 32 32" id="gel-icon-toggle-horizontal"><path d="M25 16L0 32v-8l13-8L0 8.2V0"/><path d="M21 0v2h9v28h-9v2h11V0"/></symbol><symbol viewBox="0 0 32 32" id="gel-icon-tumblr"><path d="M18 0v8.2h6.3V13h-6.4v8.3c0 1.9.2 2.8.4 3.3s.5.9 1 1.2c.5.3 1 .4 1.8.4.4 0 1.4-.1 2.5-.6l1.5 4.6c-.6.5-1.5 1.1-2.9 1.5-1.2.2-2 .3-3.2.3-1.4 0-2.3-.2-3.4-.6-1.1-.4-1.8-.9-2.6-1.6-.8-.7-1.3-1.4-1.7-2.2-.5-.8-1-2.2-1.1-3.8V13H7V8.8c1.2-.4 2.1-1 3-1.8 1.2-1.1 1.7-2 2.1-2.9.5-1 .9-2.5 1.1-4.1H18z"/></symbol><symbol viewBox="0 0 32 32" id="gel-icon-tv"><path d="M32 26V1H0v25h12v2.5H6V31h20v-2.5h-6V26h12zm-20-3.8H4V4.8h24v17.5H12z"/></symbol><symbol viewBox="0 0 32 32" id="gel-icon-twitter"><path d="M32 6.1c-1.2.5-2.4.9-3.8 1 1.4-.8 2.4-2.1 2.9-3.6-1.3.8-2.7 1.3-4.2 1.6C25.7 3.8 24 3 22.2 3c-3.6 0-6.6 2.9-6.6 6.6 0 .5.1 1 .2 1.5-5.5-.3-10.3-2.9-13.6-6.9-.6 1-.9 2.1-.9 3.3 0 2.3 1.2 4.3 2.9 5.5-1.1 0-2.1-.3-3-.8v.1c0 3.2 2.3 5.8 5.3 6.4-.6.1-1.1.2-1.7.2-.4 0-.8 0-1.2-.1.8 2.6 3.3 4.5 6.1 4.6-2.2 1.8-5.1 2.8-8.2 2.8-.5 0-1.1 0-1.6-.1 3 1.8 6.5 2.9 10.2 2.9 12.1 0 18.7-10 18.7-18.7v-.9c1.2-.9 2.3-2 3.2-3.3z"/></symbol><symbol viewBox="0 0 32 32" id="gel-icon-unlock"><path d="M23 0c-5 0-9 4.1-9 9v5H0v18h23V14h-4V9c0-2.2 1.8-4 4-4s4 1.8 4 4v5h5V9c0-4.9-4-9-9-9z"/></symbol><symbol viewBox="0 0 32 32" id="gel-icon-up"><path d="M16 3L0 29h7.2L16 13.7 24.8 29H32"/></symbol><symbol viewBox="0 0 32 32" id="gel-icon-video"><path d="M3 32l26-16L3 0"/></symbol><symbol viewBox="0 0 32 32" id="gel-icon-vocab"><path d="M0 0v18h12.7l1.2 2 2.5 4 2.5-4 1.2-2H32V0H0zm22 14H4v-4h18v4zm6-6H4V4h24v4zM0 26h32v6H0z"/></symbol><symbol viewBox="0 0 31.8 32" id="gel-icon-yes"><path d="M12.8 28.9l19-22.6L28 3.1 12.2 21.9l-9-7.5L0 18.2"/></symbol><symbol viewBox="0 0 32 32" id="gel-icon-zoom-in"><path d="M15 20h-4v-5H6v-4h5V6h4v5h5v4h-5v5z"/><path d="M32 28.5l-8.2-8.2c3.4-5.1 2.9-12-1.6-16.4C19.7 1.3 16.3 0 13 0 9.7 0 6.3 1.3 3.8 3.8c-5.1 5.1-5.1 13.3 0 18.4C6.3 24.7 9.7 26 13 26c2.5 0 5.1-.7 7.3-2.2l8.2 8.2 3.5-3.5zM6.6 19.4C4.9 17.7 4 15.4 4 13c0-2.4.9-4.7 2.6-6.4C8.3 4.9 10.6 4 13 4s4.7.9 6.4 2.6c3.5 3.5 3.5 9.2 0 12.7-1.7 1.7-4 2.6-6.4 2.6-2.4.1-4.7-.8-6.4-2.5z"/></symbol><symbol viewBox="0 0 32 32" id="gel-icon-zoom-out"><path d="M6 15v-4h14v4H6z"/><path d="M32 28.5l-8.2-8.2c3.4-5.1 2.9-12-1.6-16.4C19.7 1.3 16.3 0 13 0 9.7 0 6.3 1.3 3.8 3.8c-5.1 5.1-5.1 13.3 0 18.4C6.3 24.7 9.7 26 13 26c2.5 0 5.1-.7 7.3-2.2l8.2 8.2 3.5-3.5zM6.6 19.4C4.9 17.7 4 15.4 4 13c0-2.4.9-4.7 2.6-6.4C8.3 4.9 10.6 4 13 4s4.7.9 6.4 2.6c3.5 3.5 3.5 9.2 0 12.7-1.7 1.7-4 2.6-6.4 2.6-2.4.1-4.7-.8-6.4-2.5z"/></symbol></svg>