<svg xmlns="http://www.w3.org/2000/svg" xmlns:xlink="http://www.w3.org/1999/xlink"><symbol viewBox="0 0 32 32" id="gel-icon-chefs-tips"><path fill="#0D0D0D" d="M23.8 5.1C22.5 2.1 19.5 0 16 0S9.5 2.1 8.2 5.1C3.5 5.9 0 9.9 0 14.8c0 4.6 3.1 8.4 7.4 9.5V32h17.2v-7.7c4.2-1.1 7.4-4.9 7.4-9.5 0-4.9-3.5-8.9-8.2-9.7zm.3 17.2l-1.5.4V26H9.4v-1.4h.5c2.3 0 4.4-.9 6.2-2.7v-2.7c-1.3 2-3.6 3.4-6.2 3.4-.6 0-1.1-.1-1.6-.2l-.3-.1c-3.5-.9-5.9-4-5.9-7.6-.1-3.7 2.6-7 6.4-7.6l1-.2.4-1C11 3.5 13.4 2 16 2s5 1.5 6 3.9l.4 1 1 .2c3.9.6 6.6 3.9 6.6 7.7 0 3.5-2.4 6.6-5.9 7.5z"/></symbol><symbol viewBox="0 0 32 32" id="gel-icon-in-season"><path d="M27 9.1V0l-5.5 4.8L16 0l-5.5 4.8L5 0v9.1C5 17 9.3 21.3 14.9 22h.1v6.6L2 21.1v4.2L13.7 32H17V22c5.6-.6 10-4.9 10-12.9z"/><path d="M19.1 27.4v4.2L30 25.2v-4.1"/></symbol><symbol viewBox="0 0 32 32" id="gel-icon-recommended-wine"><path d="M28.8 8.7V7.3l-.1-.9L17.8 0l-.8.5c-.4.2-.8.5-1.2.7l13 7.5zM9.7 12.6c.5 2.6 2 4.7 4.1 6 1.3.7 2.7 1.1 4.2 1.1 4.2 0 8.3-3.1 10.1-7.6.3-.7.4-1.4.6-2L9.5 10c0 .9 0 1.7.2 2.6z"/><path d="M10.2 27.8l6.5-11.4h-2.3L8.5 26.8l-4.3-2.5-1 1.7 10.3 6 1-1.8"/></symbol><symbol viewBox="0 0 32 32" id="gel-icon-required-techniques"><path fill="none" d="M16.4 6.4L5 18h22.7"/><path fill="#0D0D0D" d="M17.8 5l2.1-2.1L27 10l1.4-1.4-7.1-7.1L19.9 0l-1.4 1.4-2.1 2.1-3.6 3.6-8.5 8.5-.7.7L0 19.9h7.1L19.2 32h2L32 21.2v-2L17.8 5zM5 18L16.4 6.4 27.7 18H5z"/></symbol><symbol viewBox="0 0 32 32" id="gel-icon-techniques-skill-rating"><circle fill="#0D0D0D" cx="6" cy="26" r="4.5"/><circle fill="#0D0D0D" cx="16" cy="26" r="4.5"/><circle fill="#0D0D0D" cx="26" cy="26" r="4.5"/><circle fill="#0D0D0D" cx="6" cy="16" r="4.5"/><circle fill="#0D0D0D" cx="16" cy="16" r="4.5"/><path fill="#0D0D0D" d="M26 13.5c1.4 0 2.5 1.1 2.5 2.5s-1.1 2.5-2.5 2.5-2.5-1.1-2.5-2.5 1.1-2.5 2.5-2.5m0-2c-2.5 0-4.5 2-4.5 4.5s2 4.5 4.5 4.5 4.5-2 4.5-4.5-2-4.5-4.5-4.5z"/><circle fill="#0D0D0D" cx="6" cy="6" r="4.5"/><path fill="#0D0D0D" d="M16 3.5c1.4 0 2.5 1.1 2.5 2.5S17.4 8.5 16 8.5 13.5 7.4 13.5 6s1.1-2.5 2.5-2.5m0-2c-2.5 0-4.5 2-4.5 4.5s2 4.5 4.5 4.5 4.5-2 4.5-4.5-2-4.5-4.5-4.5zm10 2c1.4 0 2.5 1.1 2.5 2.5S27.4 8.5 26 8.5 23.5 7.4 23.5 6s1.1-2.5 2.5-2.5m0-2c-2.5 0-4.5 2-4.5 4.5s2 4.5 4.5 4.5 4.5-2 4.5-4.5-2-4.5-4.5-4.5z"/></symbol><symbol viewBox="0 0 32 32" id="gel-icon-vegetarian-a"><circle cx="16" cy="16" r="16"/><path fill="#FFF" d="M18.3 25h-4.8l-6-16h4.3L16 21l4.2-12h4.3l-6.2 16z"/></symbol><symbol viewBox="0 0 32 32" id="gel-icon-vegetarian-b"><path d="M16 2c7.7 0 14 6.3 14 14s-6.3 14-14 14S2 23.7 2 16 8.3 2 16 2m0-2C7.2 0 0 7.2 0 16s7.2 16 16 16 16-7.2 16-16S24.8 0 16 0z"/><path d="M18.3 25h-4.8l-6-16h4.3L16 21l4.2-12h4.3l-6.2 16z"/></symbol></svg>