<?xml version="1.0" encoding="utf-8"?>
<!-- Generator: Adobe Illustrator 18.0.0, SVG Export Plug-In . SVG Version: 6.00 Build 0)  -->
<!DOCTYPE svg PUBLIC "-//W3C//DTD SVG 1.1//EN" "http://www.w3.org/Graphics/SVG/1.1/DTD/svg11.dtd">
<svg version="1.1" id="Layer_1" xmlns="http://www.w3.org/2000/svg" xmlns:xlink="http://www.w3.org/1999/xlink" x="0px" y="0px"
	 viewBox="0 0 84 25" enable-background="new 0 0 84 25" xml:space="preserve">
<g>
	<path fill-rule="evenodd" clip-rule="evenodd" fill="#FFFFFF" d="M84.1,25V0H58v25H84.1L84.1,25z M78.1,7.2c-2-1.2-4-1.8-5.9-1.8
		c-2,0-3.7,0.6-5,1.9c-1.3,1.2-2,2.8-2,4.7c0,1.8,0.7,3.4,2,4.7c1.4,1.2,3,1.8,5,1.8c2.1,0,4.1-0.6,6.2-1.9v2.7
		c-1.9,1-4,1.5-6.3,1.5c-2,0-3.6-0.4-5-1.2c-1.3-0.8-2.4-1.9-3.2-3.2c-0.8-1.5-1.2-2.9-1.2-4.4c0-2.6,0.9-4.7,2.7-6.4
		c1.8-1.7,4-2.6,6.6-2.6c1.9,0,3.9,0.5,6.1,1.5V7.2L78.1,7.2z"/>
	<path fill-rule="evenodd" clip-rule="evenodd" fill="#FFFFFF" d="M55.1,0H29v25h26.1V0L55.1,0z M37,3.7h4.5c1.5,0,2.6,0.2,3.4,0.6
		c0.8,0.4,1.4,0.9,1.8,1.6c0.4,0.7,0.6,1.5,0.6,2.4c0,1.7-0.9,2.9-2.6,3.6c1.3,0.2,2.3,0.7,3,1.6c0.7,0.8,1.1,1.8,1.1,2.9
		c0,0.9-0.3,1.7-0.7,2.4c-0.5,0.7-1.1,1.2-2,1.7c-0.9,0.4-2,0.6-3.3,0.6H37V3.7L37,3.7z"/>
	<path fill-rule="evenodd" clip-rule="evenodd" fill="#FFFFFF" d="M41.1,11.1c1.3,0,2.3-0.3,2.8-0.7c0.6-0.6,0.9-1.2,0.9-2
		c0-1.6-1.1-2.5-3.2-2.5h-2.1v5.2H41.1L41.1,11.1z"/>
	<path fill-rule="evenodd" clip-rule="evenodd" fill="#FFFFFF" d="M41.8,13.3h-2.3v5.4H42c1.2,0,2.1-0.1,2.7-0.3
		c0.6-0.3,0.9-0.6,1.2-1c0.3-0.4,0.4-0.9,0.4-1.4c0-0.5-0.2-1-0.5-1.4c-0.3-0.5-0.7-0.8-1.3-1C44,13.4,43,13.3,41.8,13.3L41.8,13.3z
		"/>
	<path fill-rule="evenodd" clip-rule="evenodd" fill="#FFFFFF" d="M26,0H-0.1v25H26V0L26,0z M7.9,21V3.7h4.5c1.5,0,2.5,0.2,3.3,0.6
		c0.8,0.4,1.5,0.9,1.8,1.6c0.4,0.6,0.6,1.4,0.7,2.3c0,1.7-0.9,2.9-2.7,3.7c1.3,0.2,2.3,0.7,3,1.5c0.7,0.8,1.1,1.8,1.1,2.9
		c0,0.9-0.2,1.7-0.7,2.4c-0.5,0.7-1.1,1.3-2,1.7c-0.9,0.4-2,0.6-3.3,0.6H7.9L7.9,21z"/>
	<path fill-rule="evenodd" clip-rule="evenodd" fill="#FFFFFF" d="M12.5,5.9h-2.1v5.2H12c1.3,0,2.2-0.3,2.8-0.7
		c0.6-0.5,0.9-1.2,0.9-2C15.7,6.8,14.6,5.9,12.5,5.9L12.5,5.9z"/>
	<path fill-rule="evenodd" clip-rule="evenodd" fill="#FFFFFF" d="M12.7,13.3h-2.3v5.4h2.4c1.3,0,2.2-0.1,2.8-0.3
		c0.5-0.2,0.9-0.5,1.2-0.9c0.3-0.5,0.4-0.9,0.4-1.5c0-0.6-0.2-1.1-0.5-1.4c-0.3-0.5-0.7-0.8-1.3-1C14.8,13.4,13.9,13.3,12.7,13.3
		L12.7,13.3z"/>
</g>
</svg>
