<?xml version="1.0" encoding="utf-8"?>
<!-- Generator: Adobe Illustrator 18.0.0, SVG Export Plug-In . SVG Version: 6.00 Build 0)  -->
<!DOCTYPE svg PUBLIC "-//W3C//DTD SVG 1.1//EN" "http://www.w3.org/Graphics/SVG/1.1/DTD/svg11.dtd">
<svg version="1.1" id="Layer_1" xmlns="http://www.w3.org/2000/svg" xmlns:xlink="http://www.w3.org/1999/xlink" x="0px" y="0px"
	 width="736.7px" height="841.9px" viewBox="230.9 0 736.7 841.9" enable-background="new 230.9 0 736.7 841.9"
	 xml:space="preserve">
<g>
	<path fill="#656565" d="M734.7,78.9l153.9,136.8V763H309.8v-684h420.9 M749.2,0H230.9v841.9h736.7V197.3L753.1,0H749.2z"/>
	<path fill="#656565" d="M567.7,348.6c0,38.1-30.3,68.4-68.4,68.4s-68.4-30.3-68.4-68.4c0-36.8,28.9-67.1,67.1-68.4
		c-22.4,1.3-39.5,19.7-39.5,40.8c0,22.4,18.4,40.8,40.8,40.8c22.4,0,40.8-18.4,40.8-40.8c0-22.4-17.1-39.5-39.5-40.8
		C537.4,280.2,567.7,310.4,567.7,348.6z"/>
	<path fill="#656565" d="M753.1,348.6c0,10.5-2.6,19.7-6.6,28.9c-5.3-9.2-9.2-14.5-10.5-15.8l-3.9-5.3l-3.9,5.3
		c-1.3,1.3-19.7,28.9-31.6,53.9c-3.9,1.3-9.2,1.3-13.2,1.3c-38.1,0-68.4-30.3-68.4-68.4c0-36.8,30.3-68.4,67.1-68.4
		c-22.4,1.3-39.5,19.7-39.5,40.8c0,22.4,18.4,40.8,40.8,40.8c22.4,0,40.8-18.4,40.8-40.8c0-21-15.8-39.5-36.8-40.8
		C725.5,281.5,753.1,311.8,753.1,348.6z"/>
	<path fill="#656565" d="M693.9,618.3H470.3c0-65.8,50-111.8,111.8-111.8S693.9,552.5,693.9,618.3z"/>
	<g>
		<path fill="#656565" d="M774.2,444.6c0,22.4-18.4,39.5-39.5,39.5c-21,0-39.5-18.4-39.5-39.5c0-21,39.5-80.2,39.5-80.2
			S774.2,422.3,774.2,444.6z"/>
	</g>
</g>
</svg>
