<?xml version="1.0" encoding="utf-8"?>
<!-- Generator: Adobe Illustrator 18.0.0, SVG Export Plug-In . SVG Version: 6.00 Build 0)  -->
<!DOCTYPE svg PUBLIC "-//W3C//DTD SVG 1.1//EN" "http://www.w3.org/Graphics/SVG/1.1/DTD/svg11.dtd">
<svg version="1.1" id="Layer_1" xmlns="http://www.w3.org/2000/svg" xmlns:xlink="http://www.w3.org/1999/xlink" x="0px" y="0px"
	 viewBox="0 411.3 547.3 71.3" enable-background="new 0 411.3 547.3 71.3" xml:space="preserve">
<g>
	<g>
		<path fill="#000000" d="M30.1,411.9h7l31.3,70.4H58.2l-9.3-20.8H18.9l-8.6,20.8H0L30.1,411.9z M44.8,452.5l-11.5-25.3l-10.6,25.3
			H44.8z"/>
		<path fill="#000000" d="M132.1,465.6v10.9c-7.4,3.8-15.7,6.1-25.3,6.1c-7.7,0-14.4-1.6-19.8-4.8c-5.4-3.2-9.6-7.4-12.8-12.8
			c-3.2-5.4-4.8-11.5-4.8-17.9c0-10.2,3.5-18.5,10.9-25.6c7-6.7,16-10.2,26.5-10.2c7.4,0,15.4,1.9,24.3,5.8v10.9c-8-4.8-16-7-23.7-7
			c-8,0-14.7,2.6-19.8,7.7c-5.4,5.1-8,11.5-8,18.9c0,7.7,2.6,14.1,7.7,18.9s11.8,7.4,19.8,7.4C115.8,473.6,124.1,471.1,132.1,465.6z
			"/>
		<path fill="#000000" d="M169.2,411.9h7l31.3,70.4h-10.2l-9.3-20.8h-29.8l-8.6,20.8h-10.2L169.2,411.9z M183.9,452.5l-11.2-25.3
			l-10.6,25.3H183.9z"/>
		<path fill="#000000" d="M215.3,482v-69.7h23.7c9.6,0,17,1.3,22.4,4.2s9.9,7,13.1,12.5c3.2,5.4,4.8,11.5,4.8,18.2
			c0,4.8-1,9.3-2.6,13.4c-1.9,4.2-4.5,8-7.7,11.2c-3.5,3.2-7.4,5.8-11.8,7.7c-2.6,1-5.1,1.6-7.4,1.9c-2.2,0.3-6.4,0.6-12.5,0.6
			L215.3,482L215.3,482z M237.6,421.2h-12.5V473H238c5.1,0,8.9-0.3,11.5-1c2.9-0.6,5.1-1.6,7-2.6c1.9-1,3.5-2.2,5.1-3.8
			c4.8-5.1,7.4-11.2,7.4-18.9c0-7.4-2.6-13.7-7.7-18.2c-1.9-1.9-4.2-3.2-6.4-4.5c-2.6-1.3-4.8-1.9-6.7-2.2
			C246,421.2,242.4,421.2,237.6,421.2z"/>
		<path fill="#000000" d="M292,412.2h39.7v8.9h-29.4v21.4h28.5v8.9h-28.5v21.7h30.4v8.9H292L292,412.2L292,412.2z"/>
		<path fill="#000000" d="M398.5,412.2h9.3v69.7h-9.9v-54.4l-21.4,26.9h-1.9l-21.7-26.9V482h-9.9v-69.7h9.6l23.3,28.8L398.5,412.2z"
			/>
		<path fill="#000000" d="M465.1,412.2h12.2l-25.9,32.9v36.8h-10.2v-36.8l-25.9-32.9h12.2l18.5,24L465.1,412.2z"/>
	</g>
	<g>
		<path fill="#000000" d="M495.9,412.2c0.8,0,1.5,0.1,2.2,0.2c0.7,0.1,1.2,0.4,1.7,0.7c0.5,0.3,0.8,0.8,1.1,1.3
			c0.3,0.5,0.4,1.2,0.4,2c0,0.9-0.2,1.6-0.6,2.1c-0.4,0.6-1,1-1.7,1.4c1,0.3,1.8,0.8,2.3,1.6c0.5,0.8,0.8,1.7,0.8,2.7
			c0,0.9-0.2,1.6-0.5,2.2c-0.3,0.6-0.8,1.1-1.3,1.5c-0.6,0.4-1.2,0.7-1.9,0.9c-0.7,0.2-1.5,0.3-2.2,0.3h-8.2v-17H495.9z
			 M495.4,419.1c0.7,0,1.2-0.2,1.6-0.5c0.4-0.3,0.6-0.8,0.6-1.5c0-0.4-0.1-0.7-0.2-1c-0.1-0.3-0.3-0.5-0.6-0.6
			c-0.2-0.1-0.5-0.2-0.8-0.3c-0.3-0.1-0.6-0.1-1-0.1h-3.5v4H495.4z M495.6,426.3c0.4,0,0.7,0,1-0.1c0.3-0.1,0.6-0.2,0.9-0.4
			c0.3-0.2,0.5-0.4,0.6-0.7c0.2-0.3,0.2-0.7,0.2-1.1c0-0.9-0.2-1.5-0.7-1.9c-0.5-0.4-1.1-0.6-2-0.6h-4.1v4.7H495.6z"/>
		<path fill="#000000" d="M517.4,412.2v3.1h-9v3.6h8.2v2.9h-8.2v4.2h9.2v3.1h-12.9v-17H517.4z"/>
		<path fill="#000000" d="M518.7,415.4v-3.1h13.9v3.1h-5.1v13.9h-3.7v-13.9H518.7z"/>
		<path fill="#000000" d="M540.9,412.2l6.4,17h-3.9l-1.3-3.8h-6.4l-1.3,3.8h-3.8l6.4-17H540.9z M541.1,422.6l-2.1-6.2h0l-2.2,6.2
			H541.1z"/>
	</g>
</g>
</svg>
