<svg xmlns="http://www.w3.org/2000/svg" width="32" height="32" viewBox="0 0 32 32"><path fill="#0D0D0D" d="M23.8 5.1C22.5 2.1 19.5 0 16 0S9.5 2.1 8.2 5.1C3.5 5.9 0 9.9 0 14.8c0 4.6 3.1 8.4 7.4 9.5V32h17.2v-7.7c4.2-1.1 7.4-4.9 7.4-9.5 0-4.9-3.5-8.9-8.2-9.7zm.3 17.2l-1.5.4V26H9.4v-1.4h.5c2.3 0 4.4-.9 6.2-2.7v-2.7c-1.3 2-3.6 3.4-6.2 3.4-.6 0-1.1-.1-1.6-.2l-.3-.1c-3.5-.9-5.9-4-5.9-7.6-.1-3.7 2.6-7 6.4-7.6l1-.2.4-1C11 3.5 13.4 2 16 2s5 1.5 6 3.9l.4 1 1 .2c3.9.6 6.6 3.9 6.6 7.7 0 3.5-2.4 6.6-5.9 7.5z"/></svg>