<?xml version="1.0" encoding="UTF-8" standalone="no"?>
<svg width="55px" height="55px" viewBox="0 0 55 55" version="1.1" xmlns="http://www.w3.org/2000/svg" xmlns:xlink="http://www.w3.org/1999/xlink">
    <!-- Generator: Sketch 3.8.3 (29802) - http://www.bohemiancoding.com/sketch -->
    <title>Instagram-icon-black</title>
    <desc>Created with Sketch.</desc>
    <defs>
        <polygon id="path-1" points="0.000118854112 54.3091979 54.2305165 54.3091979 54.2305165 0.0858126688 0.000118854112 0.0858126688"></polygon>
    </defs>
    <g id="Page-1" stroke="none" stroke-width="1" fill="none" fill-rule="evenodd">
        <g id="BBC-1008+" transform="translate(-929.000000, -3027.000000)">
            <g id="Social" transform="translate(181.000000, 3027.000000)">
                <g id="Instagram" transform="translate(731.400000, 0.000000)">
                    <g id="Instagram-icon-black" transform="translate(17.000000, 0.000000)">
                        <g id="Group-3">
                            <mask id="mask-2" fill="white">
                                <use xlink:href="#path-1"></use>
                            </mask>
                            <g id="Clip-2"></g>
                            <path d="M27.1153771,0.0855749606 C19.7512952,0.0855749606 18.8279176,0.116595884 15.9358405,0.248761656 C13.0495872,0.380570866 11.0785106,0.838872322 9.35393746,1.50909066 C7.57076922,2.20201013 6.05858836,3.12919106 4.55116165,4.63661776 C3.04373495,6.14404446 2.11655403,7.65634418 1.42375341,9.43939357 C0.753178507,11.1642044 0.294877052,13.135281 0.16330555,16.0214154 C0.0312586314,18.9134925 0.000118854112,19.8367513 0.000118854112,27.2008332 C0.000118854112,34.5651528 0.0312586314,35.4884116 0.16330555,38.3804887 C0.294877052,41.2666231 0.753178507,43.2376997 1.42375341,44.9625105 C2.11655403,46.7455599 3.04373495,48.2578597 4.55116165,49.7652864 C6.05858836,51.2727131 7.57076922,52.199894 9.35393746,52.8928135 C11.0785106,53.5630318 13.0495872,54.0213332 15.9358405,54.1531425 C18.8279176,54.2850705 19.7512952,54.3163292 27.1153771,54.3163292 C34.479459,54.3163292 35.4029555,54.2850705 38.2950326,54.1531425 C41.181167,54.0213332 43.1522436,53.5630318 44.8769356,52.8928135 C46.6601038,52.199894 48.1721658,51.2727131 49.6795925,49.7652864 C51.1870192,48.2578597 52.1142002,46.7455599 52.8071196,44.9625105 C53.4775757,43.2376997 53.9358771,41.2666231 54.0675675,38.3804887 C54.1996144,35.4884116 54.2306353,34.5651528 54.2306353,27.2008332 C54.2306353,19.8367513 54.1996144,18.9134925 54.0675675,16.0214154 C53.9358771,13.135281 53.4775757,11.1642044 52.8071196,9.43939357 C52.1142002,7.65634418 51.1870192,6.14404446 49.6795925,4.63661776 C48.1721658,3.12919106 46.6601038,2.20201013 44.8769356,1.50909066 C43.1522436,0.838872322 41.181167,0.380570866 38.2950326,0.248761656 C35.4029555,0.116595884 34.479459,0.0855749606 27.1153771,0.0855749606 M27.1153771,4.97119209 C34.3554942,4.97119209 35.2129077,4.99876624 38.0723,5.1291492 C40.715972,5.24978612 42.1517297,5.69168571 43.1071979,6.0628671 C44.3729941,6.55480427 45.2762854,7.142419 46.2249789,8.09123138 C47.174029,9.04016261 47.7616437,9.943335 48.2533432,11.2090124 C48.6245246,12.1644806 49.0664242,13.6003572 49.1870611,16.2439103 C49.3174441,19.1033026 49.3451371,19.9607161 49.3451371,27.2008332 C49.3451371,34.441188 49.3174441,35.2986016 49.1870611,38.1577561 C49.0664242,40.8015469 48.6245246,42.2374235 48.2533432,43.1928917 C47.7616437,44.4584503 47.174029,45.3617415 46.2249789,46.3106727 C45.2762854,47.2594851 44.3729941,47.8470998 43.1071979,48.3389182 C42.1517297,48.7102184 40.715972,49.152118 38.0723,49.2725172 C35.2133832,49.4031379 34.3560884,49.4305932 27.1153771,49.4305932 C19.8746657,49.4305932 19.017371,49.4031379 16.1584542,49.2725172 C13.5149011,49.152118 12.0790245,48.7102184 11.1235563,48.3389182 C9.8578789,47.8470998 8.95458765,47.2594851 8.00577527,46.3106727 C7.05708175,45.3617415 6.46946702,44.4584503 5.97752985,43.1928917 C5.60622961,42.2374235 5.16444887,40.8015469 5.04369309,38.1577561 C4.91342899,35.2986016 4.88573598,34.441188 4.88573598,27.2008332 C4.88573598,19.9607161 4.91342899,19.1033026 5.04369309,16.2439103 C5.16444887,13.6003572 5.60622961,12.1644806 5.97752985,11.2090124 C6.46946702,9.943335 7.05708175,9.04016261 8.00577527,8.09123138 C8.95458765,7.142419 9.8578789,6.55480427 11.1235563,6.0628671 C12.0790245,5.69168571 13.5149011,5.24978612 16.1584542,5.1291492 C19.0178465,4.99876624 19.87526,4.97119209 27.1153771,4.97119209" id="Fill-1" fill="#FFFFFF" mask="url(#mask-2)"></path>
                        </g>
                        <path d="M27.1153771,36.2393319 C22.1236232,36.2393319 18.0768784,32.1927059 18.0768784,27.2008332 C18.0768784,22.2090794 22.1236232,18.1624534 27.1153771,18.1624534 C32.1072498,18.1624534 36.1538757,22.2090794 36.1538757,27.2008332 C36.1538757,32.1927059 32.1072498,36.2393319 27.1153771,36.2393319 M27.1153771,13.2768363 C19.4253972,13.2768363 13.1913802,19.5109722 13.1913802,27.2008332 C13.1913802,34.8910508 19.4253972,41.124949 27.1153771,41.124949 C34.805357,41.124949 41.039374,34.8910508 41.039374,27.2008332 C41.039374,19.5109722 34.805357,13.2768363 27.1153771,13.2768363" id="Fill-4" fill="#FFFFFF"></path>
                        <path d="M44.8435376,12.7266606 C44.8435376,14.5236159 43.3867427,15.9805296 41.5896686,15.9805296 C39.7927132,15.9805296 38.3357995,14.5236159 38.3357995,12.7266606 C38.3357995,10.9295864 39.7927132,9.47279158 41.5896686,9.47279158 C43.3867427,9.47279158 44.8435376,10.9295864 44.8435376,12.7266606" id="Fill-5" fill="#FFFFFF"></path>
                    </g>
                </g>
            </g>
        </g>
    </g>
</svg>