<?xml version="1.0" encoding="UTF-8" standalone="no"?>
<svg width="57px" height="47px" viewBox="0 0 57 47" version="1.1" xmlns="http://www.w3.org/2000/svg" xmlns:xlink="http://www.w3.org/1999/xlink">
    <!-- Generator: Sketch 3.8.3 (29802) - http://www.bohemiancoding.com/sketch -->
    <title>twitter</title>
    <desc>Created with Sketch.</desc>
    <defs></defs>
    <g id="Page-1" stroke="none" stroke-width="1" fill="none" fill-rule="evenodd">
        <g id="BBC-1008+" transform="translate(-182.000000, -3036.000000)" fill="#FFFFFF">
            <g id="Social" transform="translate(181.000000, 3027.000000)">
                <g id="Twitter" transform="translate(0.000000, 9.000000)">
                    <g id="twitter" transform="translate(29.500000, 23.500000) scale(1, -1) translate(-29.500000, -23.500000) translate(1.000000, 0.000000)">
                        <path d="M56.68,40.5941481 C54.5963719,39.6694682 52.3556531,39.0445042 50.0046807,38.7629429 C52.4041482,40.2021674 54.2465446,42.4800243 55.1144812,45.1937146 C52.8687885,43.8611377 50.3818642,42.8945531 47.7328754,42.3735425 C45.6136014,44.6320842 42.5924028,46.0438282 39.2491476,46.0438282 C32.8291526,46.0438282 27.625678,40.8399392 27.625678,34.4203586 C27.625678,33.5089837 27.7275175,32.6215662 27.9265129,31.7713697 C18.265641,32.255491 9.70067373,36.8844861 3.96748426,43.9162645 C2.96687027,42.2002868 2.39371711,40.2038254 2.39371711,38.0732359 C2.39371711,34.0399421 4.44497372,30.4827285 7.5648617,28.3974424 C5.65950465,28.4570043 3.86688817,28.9801288 2.29962848,29.8513813 C2.29784618,29.8024718 2.29784618,29.7540596 2.29784618,29.7054817 C2.29784618,24.0725982 6.30511019,19.3756272 11.6221543,18.3070787 C10.6476116,18.0413923 9.6209678,17.9008811 8.56075053,17.9008811 C7.8109843,17.9008811 7.08401488,17.9717999 6.37304468,18.1081248 C7.85322057,13.4903208 12.145196,10.1292426 17.2326141,10.035154 C13.2511312,6.91696544 8.23989585,5.05964748 2.79353164,5.05964748 C1.85591974,5.05964748 0.929954924,5.1148572 0.0198649782,5.22171204 C5.16614032,1.92371884 11.2752698,0 17.8403355,0 C39.2204236,0 50.9106258,17.7114603 50.9106258,33.0731917 C50.9106258,33.5769182 50.8990201,34.0772045 50.8778813,34.5757085 C53.1480287,36.2158765 55.1185017,38.2625737 56.6778032,40.5940652" id="path22"></path>
                    </g>
                </g>
            </g>
        </g>
    </g>
</svg>