<svg xmlns="http://www.w3.org/2000/svg" width="32" height="32" viewBox="0 0 32 32"><g fill="#F7C843"><circle cx="16" cy="13.1" r="7.1"/><path d="M17.2 4.8h-2.4V0h2.4v4.8M10.8 6.5L8.4 2.3l2-1.1 2.5 4.2-2.1 1.1M21.6 25.1l-2.5-4.2 2.1-1.2 2.4 4.2-2 1.2M26.8 20.7l-4.2-2.4 1.2-2 4.1 2.4-1.1 2M7.7 14.3H2.9V12h4.8v2.3M29.1 14.3h-4.8V12h4.8v2.3M5.2 20.7l-1.1-2 4.1-2.4 1.2 2-4.2 2.4M23.8 10l-1.2-2 4.2-2.4 1.1 2-4.1 2.4M21.2 6.5l-2.1-1.1 2.5-4.2 2 1.1-2.4 4.2M10.4 25.1l-2-1.2 2.4-4.2 2.1 1.2-2.5 4.2M17.2 26.2h-2.4v-4.8h2.4v4.8M8.2 10L4.1 7.6l1.1-2L9.4 8l-1.2 2"/></g></svg>