<?xml version="1.0" encoding="utf-8"?>
<!-- Generator: Adobe Illustrator 18.0.0, SVG Export Plug-In . SVG Version: 6.00 Build 0)  -->
<!DOCTYPE svg PUBLIC "-//W3C//DTD SVG 1.1//EN" "http://www.w3.org/Graphics/SVG/1.1/DTD/svg11.dtd">
<svg version="1.1" id="Layer_1" xmlns="http://www.w3.org/2000/svg" xmlns:xlink="http://www.w3.org/1999/xlink" x="0px" y="0px"
	 viewBox="0 0 32 32" enable-background="new 0 0 32 32" xml:space="preserve">
<g>
	<polygon fill="#FFFFFF" points="0,5.6 0,22.6 3.4,22.6 3.2,20.8 1.9,20.8 1.9,7.5 30.1,7.5 30.1,20.8 28.8,20.8 28.6,22.6 32,22.6 
		32,5.6 	"/>
	<path fill="#FFFFFF" d="M10.1,15.2c0-1.1-1-2.1-2.1-2.1s-2.1,1-2.1,2.1s1,2.1,2.1,2.1S10.1,16.3,10.1,15.2"/>
	<polyline fill="#FFFFFF" points="4.5,19.2 5.9,26.4 10.1,26.4 11.5,19.2 11.5,17.8 4.5,17.8 4.5,19.2 	"/>
	<path fill="#FFFFFF" d="M18.1,15.2c0-1.1-1-2.1-2.1-2.1s-2.1,1-2.1,2.1s1,2.1,2.1,2.1S18.1,16.3,18.1,15.2"/>
	<polyline fill="#FFFFFF" points="12.5,19.2 13.9,26.4 18.1,26.4 19.5,19.2 19.5,17.8 12.5,17.8 12.5,19.2 	"/>
	<path fill="#FFFFFF" d="M27,15.2c0-1.1-1-2.1-2.1-2.1c-1.1,0-2.1,1-2.1,2.1s1,2.1,2.1,2.1S27,16.3,27,15.2"/>
	<polyline fill="#FFFFFF" points="21.4,19.2 22.9,26.4 27,26.4 28.5,19.2 28.5,17.8 21.4,17.8 21.4,19.2 	"/>
</g>
</svg>
