<svg xmlns="http://www.w3.org/2000/svg" xmlns:xlink="http://www.w3.org/1999/xlink">
<symbol viewBox="0 240 800 120" id="gel-icon-logo">
    <path fill="#FFFFFF" d="M50,241h12l53,118H98L82,324H32L17,359H0L50,241z M75,309l-19-42l-18,42H75z
        "/>
    <path fill="#FFFFFF" d="M221,331v18c-12,6-26,10-42,10c-13,0-24-3-33-8c-9-5-16-12-21-21
        c-5-9-8-19-8-30c0-17,6-31,18-43c12-11,27-17,45-17c12,0,26,3,41,10v18
        c-13-8-27-12-40-12c-13,0-25,4-33,13c-9,9-13,19-13,32c0,13,4,24,13,32
        c9,8,20,12,33,12C194,345,208,340,221,331z"/>
    <path fill="#FFFFFF" d="M284,241h12L348,359h-17l-16-35h-50L251,359h-17L284,241z M308,309l-19-42
        l-18,42H308z"/>
    <path fill="#FFFFFF" d="M361,358V242h40c16,0,28,2,38,7c9,5,17,12,22,21c5,9,8,19,8,31
        c0,8-2,16-4,23c-3,7-8,13-13,19c-6,5-12,10-20,13c-4,2-9,3-12,3s-11,1-21,1
        H361z M398,257h-21v87h21c9,0,15-1,19-2c5-1,9-3,12-4c3-2,6-4,9-6
        c8-9,12-19,12-32c0-12-4-23-13-31c-3-3-7-5-11-8c-4-2-8-3-11-4
        C412,257,406,257,398,257z"/>
    <path fill="#FFFFFF" d="M490,242H556v15h-49v36h48v15h-48V344h51v15h-68V242z"/>
    <path fill="#FFFFFF" d="M668,242h16v117H667v-91l-36,45h-3l-37-45v91h-17V242h16l39,48L668,242z"
        />
    <path fill="#FFFFFF" d="M780,242H800l-43,55v62h-17v-62L696,242h20l31,40L780,242z"/>
</symbol>
<symbol viewBox="302 370 1600 335" id="gel-icon-logo--mvp">
    <path fill="#FFFFFF" d="M121,398.4h28.3l126.1,283.1h-41.2l-37.3-83.6h-121l-34.7,83.6H0L121,398.4z M180.2,561.9l-46.3-101.7
        L91.4,561.9H180.2z"/>
    <path fill="#FFFFFF" d="M531.5,614.6v43.8c-29.6,15.4-63.1,24.5-101.7,24.5c-30.9,0-57.9-6.4-79.8-19.3
        c-21.9-12.9-38.6-29.6-51.5-51.5c-12.9-21.9-19.3-46.3-19.3-72.1c0-41.2,14.2-74.6,43.8-102.9c28.3-27,64.3-41.2,106.8-41.2
        c29.6,0,61.8,7.7,97.8,23.2v43.8c-32.2-19.3-64.3-28.3-95.2-28.3c-32.2,0-59.2,10.3-79.8,30.9c-21.9,20.6-32.2,46.3-32.2,75.9
        c0,30.9,10.3,56.6,30.9,75.9c20.6,19.3,47.6,29.6,79.8,29.6C465.8,646.8,499.3,636.5,531.5,614.6z"/>
    <path fill="#FFFFFF" d="M680.8,398.4h28.3l126.1,283.1H794l-37.3-83.6H637l-34.7,83.6h-41.2L680.8,398.4z M739.9,561.9l-45-101.7
        l-42.5,101.7H739.9z"/>
    <path fill="#FFFFFF" d="M866.1,680.3V399.7h95.2c38.6,0,68.2,5.1,90.1,16.7c21.9,11.6,39.9,28.3,52.8,50.2
        c12.9,21.9,19.3,46.3,19.3,73.4c0,19.3-3.9,37.3-10.3,54c-7.7,16.7-18,32.2-30.9,45c-14.2,12.9-29.6,23.2-47.6,30.9
        c-10.3,3.9-20.6,6.4-29.6,7.7c-9,1.3-25.7,2.6-50.2,2.6H866.1z M956.1,435.8H906v208.5h51.5c20.6,0,36-1.3,46.3-3.9
        c11.6-2.6,20.6-6.4,28.3-10.3c7.7-3.9,14.2-9,20.6-15.4c19.3-20.6,29.6-45,29.6-75.9c0-29.6-10.3-55.3-30.9-73.4
        c-7.7-7.7-16.7-12.9-25.7-18c-10.3-5.1-19.3-7.7-27-9C989.6,435.8,975.4,435.8,956.1,435.8z"/>
    <path fill="#FFFFFF" d="M1174.9,399.7h159.6v36h-118.4V522h114.5v36h-114.5v87.5h122.3v36h-163.4V399.7z"/>
    <path fill="#FFFFFF" d="M1603.4,399.7h37.3v280.5h-39.9V461.5l-86.2,108.1h-7.7l-87.5-108.1v218.8h-39.9V399.7h38.6l93.9,115.8
        L1603.4,399.7z"/>
    <path fill="#FFFFFF" d="M1871.1,399.7h48.9l-104.2,132.5v148h-41.2v-148l-104.2-132.5h48.9l74.6,96.5L1871.1,399.7z"/>
    <path fill="#FFFFFF" d="M1992.6,456.6h-19v-56.1h14.7c4.6,0,8.2,0.6,10.8,1.9s4.6,3,5.9,5.1c1.4,2.2,2,4.7,2,7.6
        c0,5.5-2.8,9.5-8.5,11.8c4.1,0.8,7.3,2.5,9.8,5.1c2.4,2.6,3.6,5.7,3.6,9.3c0,2.9-0.7,5.4-2.2,7.7c-1.5,2.2-3.6,4.1-6.5,5.5
        C2000.4,455.9,1996.8,456.6,1992.6,456.6z M1988.5,407.6h-6.9v16.9h5.3c4.3,0,7.3-0.8,9.1-2.4c1.8-1.6,2.7-3.7,2.7-6.3
        C1998.8,410.3,1995.4,407.6,1988.5,407.6z M1989.1,431.6h-7.5v17.8h7.9c4.4,0,7.4-0.3,8.9-1c1.6-0.7,2.8-1.7,3.8-3.2
        c0.9-1.4,1.4-3,1.4-4.7c0-1.7-0.5-3.3-1.5-4.7c-1-1.4-2.4-2.5-4.3-3.2C1996,432,1993.1,431.6,1989.1,431.6z"/>
    <path fill="#FFFFFF" d="M2019.9,400.5h31.8v7.1h-23.8v17.1h23v7.2h-23v17.4h24.5v7.1h-32.5V400.5z"/>
    <path fill="#FFFFFF" d="M2056.2,400.4h46.8v7.1h-19.5v49h-8.1v-49h-19.2V400.4z"/>
    <path fill="#FFFFFF" d="M2120.3,400.2h5.6l25.1,56.4h-8.2l-7.5-16.6h-23.9l-7,16.6h-8.2L2120.3,400.2z M2132,432.8l-9-20.3
        l-8.4,20.3H2132z"/>
</symbol>
</svg>       