<svg xmlns="http://www.w3.org/2000/svg" width="32" height="32" viewBox="0 0 32 32"><path fill="#FFF" d="M19 21h-6l-4 5v6h14v-6"/><path fill="#FFF" d="M19 21h-6l-4 5v6h14v-6"/><path d="M18 6V.7l-.6-.7L16 3.3l-.6.4-1.1-1.4-.3 1L15.3 6"/><path d="M14 6V.7l.6-.7L16 3.3l.6.4 1-1.4.4 1L16.7 6M26 7l-1.3 9.7-3.4 3.3H11l-3.3-3.3L6 7H4v12l3 4 2 3 4-5h6l4 5 2-3 3-4V7"/><path d="M16 8l-4 1.4v4.9c.2 2.1 1.9 3.7 4 3.7s3.8-1.6 4-3.7V9.4L16 8z"/><path fill="#FFF" d="M19 10l-3-1-3 1v-.1V12h6v-2"/><path d="M9 26v6h2v-8.5M13 21l-1 1.2V32h2V21M16 21h-1v11h2V21M19 21h-1v11h2v-9.8M21 32h2v-6l-2-2.5"/></svg>