<svg xmlns="http://www.w3.org/2000/svg" width="32" height="32" viewBox="0 0 32 32"><path d="M0 0h32v32H0z"/><circle fill="#FFE710" cx="11.5" cy="10.5" r="1"/><circle fill="#FFE710" cx="8.5" cy="10.5" r="1"/><circle fill="#FFE710" cx="8.5" cy="7.5" r="1"/><circle fill="#FFE710" cx="11.5" cy="7.5" r="1"/><circle fill="#FFE710" cx="11.5" cy="4.5" r="1"/><circle fill="#FFE710" cx="8.5" cy="4.5" r="1"/><path fill="#B3B3B3" d="M0 28h32v4H0zM11 28H9l.7-16h.6"/><path fill="#FFF" d="M26 25.9V32h1.9v-7.1c0-.5-.4-.9-.9-.9s-.9.4-.9.9v.1H25v-.1c0-.5-.4-.9-.9-.9s-.9.4-.9.9v.1H22v-.1c0-.5-.4-.9-.9-.9s-.9.4-.9.9V32h1.9v-6.1h1.2V32H25v-6.1h1z"/></svg>