<svg xmlns="http://www.w3.org/2000/svg" width="32" height="32" viewBox="0 0 32 32"><circle fill="#0D0D0D" cx="6" cy="26" r="4.5"/><circle fill="#0D0D0D" cx="16" cy="26" r="4.5"/><circle fill="#0D0D0D" cx="26" cy="26" r="4.5"/><circle fill="#0D0D0D" cx="6" cy="16" r="4.5"/><circle fill="#0D0D0D" cx="16" cy="16" r="4.5"/><path fill="#0D0D0D" d="M26 13.5c1.4 0 2.5 1.1 2.5 2.5s-1.1 2.5-2.5 2.5-2.5-1.1-2.5-2.5 1.1-2.5 2.5-2.5m0-2c-2.5 0-4.5 2-4.5 4.5s2 4.5 4.5 4.5 4.5-2 4.5-4.5-2-4.5-4.5-4.5z"/><circle fill="#0D0D0D" cx="6" cy="6" r="4.5"/><path fill="#0D0D0D" d="M16 3.5c1.4 0 2.5 1.1 2.5 2.5S17.4 8.5 16 8.5 13.5 7.4 13.5 6s1.1-2.5 2.5-2.5m0-2c-2.5 0-4.5 2-4.5 4.5s2 4.5 4.5 4.5 4.5-2 4.5-4.5-2-4.5-4.5-4.5zM26 3.5c1.4 0 2.5 1.1 2.5 2.5S27.4 8.5 26 8.5 23.5 7.4 23.5 6s1.1-2.5 2.5-2.5m0-2c-2.5 0-4.5 2-4.5 4.5s2 4.5 4.5 4.5 4.5-2 4.5-4.5-2-4.5-4.5-4.5z"/></svg>