<?xml version="1.0" encoding="utf-8"?>
<!-- Generator: Adobe Illustrator 18.0.0, SVG Export Plug-In . SVG Version: 6.00 Build 0)  -->
<!DOCTYPE svg PUBLIC "-//W3C//DTD SVG 1.1//EN" "http://www.w3.org/Graphics/SVG/1.1/DTD/svg11.dtd">
<svg version="1.1" id="Layer_1" xmlns="http://www.w3.org/2000/svg" xmlns:xlink="http://www.w3.org/1999/xlink" x="0px" y="0px"
	 viewBox="0 0 15 15" enable-background="new 0 0 15 15" xml:space="preserve">
<polyline points="0,18 0,2 0,0 "/>
<g>
	<polygon points="-30.1,-9 -30.1,-4 -18.6,-4 -23.6,1 -42.1,1 -42.1,23 -20.1,23 -20.1,8.5 -22.1,10.5 -22.1,21 -40.1,21 -40.1,5 
		-40.1,3 -25.6,3 -33.3,10.7 -29.8,14.3 -15.1,-0.5 -15.1,11 -10.1,11 -10.1,-9 	"/>
</g>
<g>
	<polygon points="-29.1,-8 -29.1,-3 -17.6,-3 -22.6,2 -41.1,2 -41.1,24 -19.1,24 -19.1,9.5 -21.1,11.5 -21.1,22 -39.1,22 -39.1,6 
		-39.1,4 -24.6,4 -32.3,11.7 -28.8,15.3 -14.1,0.5 -14.1,12 -9.1,12 -9.1,-8 	"/>
</g>
<g>
	<polygon fill="#FFFFFF" points="5.8,0.5 5.8,2.7 10.8,2.7 8.6,4.9 0.5,4.9 0.5,14.5 10.1,14.5 10.1,8.2 9.2,9 9.2,13.6 1.4,13.6 
		1.4,6.6 1.4,5.8 7.7,5.8 4.3,9.1 5.9,10.7 12.3,4.2 12.3,9.2 14.5,9.2 14.5,0.5 	"/>
</g>
</svg>
