<?xml version="1.0" encoding="utf-8"?>
<!-- Generator: Adobe Illustrator 18.0.0, SVG Export Plug-In . SVG Version: 6.00 Build 0)  -->
<!DOCTYPE svg PUBLIC "-//W3C//DTD SVG 1.1//EN" "http://www.w3.org/Graphics/SVG/1.1/DTD/svg11.dtd">
<svg version="1.1" id="Layer_1" xmlns="http://www.w3.org/2000/svg" xmlns:xlink="http://www.w3.org/1999/xlink" x="0px" y="0px"
	 viewBox="0 0 149.2 22.4" enable-background="new 0 0 149.2 22.4" xml:space="preserve">
<g>
	<path fill="#000000" d="M9.4,0.2h2.2l9.8,22h-3.2l-2.9-6.5H5.9l-2.7,6.5H0L9.4,0.2z M14,12.9L10.4,5l-3.3,7.9H14z"/>
	<path fill="#000000" d="M41.3,17v3.4c-2.3,1.2-4.9,1.9-7.9,1.9c-2.4,0-4.5-0.5-6.2-1.5c-1.7-1-3-2.3-4-4c-1-1.7-1.5-3.6-1.5-5.6
		c0-3.2,1.1-5.8,3.4-8C27.3,1.1,30.1,0,33.4,0c2.3,0,4.8,0.6,7.6,1.8v3.4C38.5,3.7,36,3,33.6,3c-2.5,0-4.6,0.8-6.2,2.4
		c-1.7,1.6-2.5,3.6-2.5,5.9c0,2.4,0.8,4.4,2.4,5.9c1.6,1.5,3.7,2.3,6.2,2.3C36.2,19.5,38.8,18.7,41.3,17z"/>
	<path fill="#000000" d="M52.9,0.2h2.2l9.8,22h-3.2l-2.9-6.5h-9.3l-2.7,6.5h-3.2L52.9,0.2z M57.5,12.9L54,5l-3.3,7.9H57.5z"/>
	<path fill="#000000" d="M67.3,22.1V0.3h7.4c3,0,5.3,0.4,7,1.3c1.7,0.9,3.1,2.2,4.1,3.9c1,1.7,1.5,3.6,1.5,5.7
		c0,1.5-0.3,2.9-0.8,4.2c-0.6,1.3-1.4,2.5-2.4,3.5c-1.1,1-2.3,1.8-3.7,2.4c-0.8,0.3-1.6,0.5-2.3,0.6s-2,0.2-3.9,0.2H67.3z M74.3,3.1
		h-3.9v16.2h4c1.6,0,2.8-0.1,3.6-0.3c0.9-0.2,1.6-0.5,2.2-0.8s1.1-0.7,1.6-1.2c1.5-1.6,2.3-3.5,2.3-5.9c0-2.3-0.8-4.3-2.4-5.7
		c-0.6-0.6-1.3-1-2-1.4c-0.8-0.4-1.5-0.6-2.1-0.7C76.9,3.1,75.8,3.1,74.3,3.1z"/>
	<path fill="#000000" d="M91.3,0.3h12.4v2.8h-9.2v6.7h8.9v2.8h-8.9v6.8h9.5v2.8H91.3V0.3z"/>
	<path fill="#000000" d="M124.6,0.3h2.9v21.8h-3.1v-17l-6.7,8.4h-0.6l-6.8-8.4v17h-3.1V0.3h3l7.3,9L124.6,0.3z"/>
	<path fill="#000000" d="M145.4,0.3h3.8l-8.1,10.3v11.5h-3.2V10.6l-8.1-10.3h3.8l5.8,7.5L145.4,0.3z"/>
</g>
</svg>
