<?xml version="1.0" encoding="UTF-8" standalone="no"?>
<svg width="25px" height="53px" viewBox="0 0 25 53" version="1.1" xmlns="http://www.w3.org/2000/svg" xmlns:xlink="http://www.w3.org/1999/xlink">
    <!-- Generator: Sketch 3.8.3 (29802) - http://www.bohemiancoding.com/sketch -->
    <title>facebook</title>
    <desc>Created with Sketch.</desc>
    <defs></defs>
    <g id="Page-1" stroke="none" stroke-width="1" fill="none" fill-rule="evenodd">
        <g id="BBC-1008+" transform="translate(-565.000000, -3030.000000)" fill="#FFFFFF">
            <g id="Social" transform="translate(181.000000, 3027.000000)">
                <g id="Facebook" transform="translate(354.200000, 3.000000)">
                    <g id="facebook" transform="translate(30.000000, 0.000000)">
                        <path d="M8.08188406,2.68890731 C10.1037394,0.751049674 12.9795914,0.0965255274 15.6924717,0.0149475226 C18.5616538,-0.0110206311 21.4297033,0.00468693506 24.2988854,0.00582700034 C24.3102116,3.05246146 24.3112184,6.10023599 24.2977528,9.14674378 C22.4435254,9.14345025 20.5880396,9.15130404 18.7338123,9.14345025 C17.5580253,9.06972603 16.3506507,9.96683074 16.1369627,11.1400846 C16.108773,13.178648 16.1267691,15.2183515 16.1279018,17.2570415 C18.847452,17.2683155 21.5670022,17.2536213 24.2864265,17.2638819 C24.0873368,20.2129775 23.7238912,23.1486456 23.2975221,26.072913 C20.8953576,26.0955877 18.4918088,26.0706329 16.0897702,26.0854537 C16.0683762,34.7835185 16.1009705,43.4815832 16.0729067,52.179648 C12.5048971,52.1943422 8.93474809,52.1728076 5.36686433,52.1897819 C5.29928458,43.4905771 5.37240159,34.7869387 5.32973952,26.0865938 C3.58902603,26.0683528 1.84730576,26.0991345 0.10671812,26.0718996 C0.113388003,23.1476322 0.108983363,20.2234914 0.109990138,17.3002373 C1.84944516,17.2788294 3.59015865,17.3047976 5.32973952,17.2878233 C5.38259519,14.4450072 5.276758,11.5988975 5.38486043,8.75848821 C5.55928415,6.50901273 6.41101556,4.24268962 8.08188406,2.68890731 L8.08188406,2.68890731 Z" id="Shape"></path>
                    </g>
                </g>
            </g>
        </g>
    </g>
</svg>