<?xml version="1.0" encoding="UTF-8" standalone="no"?>
<svg width="64px" height="54px" viewBox="0 0 64 54" version="1.1" xmlns="http://www.w3.org/2000/svg" xmlns:xlink="http://www.w3.org/1999/xlink">
    <!-- Generator: Sketch 3.8.3 (29802) - http://www.bohemiancoding.com/sketch -->
    <title>Medium</title>
    <desc>Created with Sketch.</desc>
    <defs></defs>
    <g id="Page-1" stroke="none" stroke-width="1" fill="none" fill-rule="evenodd">
        <g id="BBC-1008+" transform="translate(-734.000000, -3029.000000)" fill="#FFFFFF">
            <g id="Social" transform="translate(181.000000, 3027.000000)">
                <g id="Medium" transform="translate(550.800000, 2.000000)">
                    <g transform="translate(3.000000, 0.000000)">
                        <path d="M62.8674062,9.70896344 C62.855355,9.69937849 62.8457141,9.68679823 62.8306501,9.67960951 L62.808958,9.66882643 L43.7861656,0.212666257 C43.6578205,0.14856685 43.5228473,0.105434539 43.3860664,0.0706890656 C43.214337,0.0269576945 43.0389923,0 42.863045,0 C42.134551,0 41.4096724,0.363629346 41.0168038,0.997434697 L30.0652913,18.6912673 L43.8090629,40.8948226 L62.9258544,10.0108896 C62.9891231,9.90785132 62.9589952,9.78085063 62.8674062,9.70896344" id="Fill-53"></path>
                        <polyline id="Fill-54" points="24.0330716 14.6607924 24.0330716 34.8017846 42.0399492 43.7529373 24.0330716 14.6607924"></polyline>
                        <path d="M44.7454398,45.0978267 L59.5677923,52.4656641 C61.4965841,53.424759 63.0602251,52.7532129 63.0602251,50.9668163 L63.0602251,15.5090612 L44.7454398,45.0978267" id="Fill-55"></path>
                        <path d="M20.9069948,9.73771832 L2.32828855,0.502012178 C1.9926631,0.335473532 1.67330676,0.256397628 1.38407836,0.256397628 C0.570623514,0.256397628 0,0.8824152 0,1.93256717 L0,41.8119833 C0,42.879508 0.78573713,44.1435243 1.74621641,44.620975 L18.1099152,52.75501 C18.5292964,52.9634829 18.9287931,53.0623278 19.289726,53.0623278 C20.3068459,53.0623278 21.0202759,52.2799556 21.0202759,50.9668163 L21.0202759,9.91923346 C21.0202759,9.8425538 20.9762891,9.77186473 20.9069948,9.73771832" id="Fill-56"></path>
                    </g>
                </g>
            </g>
        </g>
    </g>
</svg>