<?xml version="1.0" encoding="UTF-8" standalone="no"?>
<svg width="94px" height="45px" viewBox="0 0 94 45" version="1.1" xmlns="http://www.w3.org/2000/svg" xmlns:xlink="http://www.w3.org/1999/xlink">
    <!-- Generator: Sketch 3.8.3 (29802) - http://www.bohemiancoding.com/sketch -->
    <title>soundcloud-logo</title>
    <desc>Created with Sketch.</desc>
    <defs></defs>
    <g id="Page-1" stroke="none" stroke-width="1" fill="none" fill-rule="evenodd">
        <g id="BBC-1008+" transform="translate(-1118.000000, -3037.000000)" fill="#FFFFFF">
            <g id="Social" transform="translate(181.000000, 3027.000000)">
                <g id="Soundcloud" transform="translate(930.000000, 10.000000)">
                    <g id="soundcloud-logo" transform="translate(7.000000, 0.000000)">
                        <path d="M4.52024322,23.1406635 C4.31918395,23.1406635 4.15642169,23.3149688 4.13248606,23.5548024 L3.21216119,32.7654601 L4.13248606,41.7651167 C4.15642169,42.0062608 4.31918395,42.1792555 4.52024322,42.1792555 C4.71651536,42.1792555 4.88047441,42.0101925 4.90919716,41.7651167 L5.95638086,32.7654601 L4.90919716,23.5548024 C4.88047441,23.3097265 4.71651536,23.1406635 4.52024322,23.1406635 L4.52024322,23.1406635 Z" id="Fill-1"></path>
                        <path d="M1.06154507,26.6673966 C0.865272928,26.6673966 0.710888132,26.8312173 0.686952504,27.0723615 L0,32.7654601 L0.686952504,38.3602663 C0.710888132,38.5961681 0.865272928,38.7599889 1.06154507,38.7599889 C1.24824297,38.7599889 1.40262776,38.5961681 1.43494086,38.3602663 L2.24396506,32.7654601 L1.43494086,27.0671192 C1.40262776,26.8312173 1.24824297,26.6673966 1.06154507,26.6673966 L1.06154507,26.6673966 Z" id="Fill-2"></path>
                        <path d="M8.20034592,21.3386353 C7.95261218,21.3386353 7.75514325,21.5483259 7.73240441,21.8405821 L6.85755723,32.7654601 L7.73240441,43.2853732 C7.75514325,43.5828717 7.95261218,43.78732 8.20034592,43.78732 C8.44329254,43.78732 8.63956468,43.5776294 8.66709066,43.2853732 L9.65802563,32.7602178 L8.66709066,21.8405821 C8.63956468,21.5483259 8.44329254,21.3386353 8.20034592,21.3386353 L8.20034592,21.3386353 Z" id="Fill-3"></path>
                        <path d="M11.9067778,20.9493972 C11.6171567,20.9493972 11.3789972,21.2049576 11.3550616,21.5430836 L10.5328728,32.7654601 L11.3550616,43.6234992 C11.3789972,43.956383 11.6171567,44.2119434 11.9067778,44.2119434 C12.1928086,44.2119434 12.4309681,43.956383 12.4537069,43.6234992 L13.3931803,32.7654601 L12.4537069,21.5378413 C12.4309681,21.2049576 12.1928086,20.9493972 11.9067778,20.9493972 L11.9067778,20.9493972 Z" id="Fill-4"></path>
                        <path d="M16.273833,22.3517028 C16.2498974,21.967707 15.9794248,21.6767613 15.6419325,21.6767613 C15.3056369,21.6767613 15.0339675,21.967707 15.0160158,22.3569451 L14.2357144,32.7654601 L15.0160158,43.7099966 C15.0339675,44.0992347 15.3056369,44.3914909 15.6419325,44.3914909 C15.9794248,44.3914909 16.2498974,44.0992347 16.273833,43.7099966 L17.1570577,32.7654601 L16.273833,22.3517028 Z" id="Fill-5"></path>
                        <path d="M19.4153841,15.0623348 C19.0312173,15.0623348 18.7236445,15.4004608 18.704496,15.8303265 L17.9756561,32.7707023 L18.704496,43.7152388 C18.7236445,44.1451045 19.0360044,44.4779883 19.4153841,44.4779883 C19.7887799,44.4779883 20.0975495,44.1451045 20.1202883,43.7152388 L20.948461,32.7707023 L20.1202883,15.8303265 C20.0975495,15.4004608 19.7887799,15.0623348 19.4153841,15.0623348 L19.4153841,15.0623348 Z" id="Fill-6"></path>
                        <path d="M23.1505388,11.1607799 C22.7292717,11.1607799 22.3834019,11.5395335 22.3654502,12.0165795 C22.3654502,12.0218217 21.6773009,32.8322989 21.6773009,32.8322989 L22.3654502,43.7047543 C22.3834019,44.1818003 22.7292717,44.5605539 23.1505388,44.5605539 C23.570609,44.5605539 23.921266,44.1818003 23.9404145,43.7047543 L23.9404145,43.7099966 L24.7159288,32.8322989 L23.9404145,12.0165795 C23.921266,11.5395335 23.570609,11.1607799 23.1505388,11.1607799 L23.1505388,11.1607799 Z" id="Fill-7"></path>
                        <path d="M27.0400782,9.28273884 C26.5673496,9.28273884 26.1843795,9.69687769 26.1700181,10.2250358 L25.5345272,32.7759446 L26.1700181,43.5409336 C26.1891666,44.0638494 26.5673496,44.4779883 27.0400782,44.4779883 C27.5068229,44.4779883 27.8862026,44.0638494 27.9089415,43.5370019 L27.9089415,43.5409336 L28.6246167,32.7759446 L27.9089415,10.2250358 C27.8862026,9.69687769 27.5068229,9.28273884 27.0400782,9.28273884 L27.0400782,9.28273884 Z" id="Fill-8"></path>
                        <path d="M31.8451554,9.46621808 C31.8272037,8.88825848 31.4107237,8.43218152 30.8961078,8.43218152 C30.3779014,8.43218152 29.9614215,8.88825848 29.9470601,9.46621808 L29.3582437,32.7759446 L29.9470601,43.4754053 C29.9614215,44.0481226 30.3779014,44.4989573 30.8961078,44.4989573 C31.4107237,44.4989573 31.8272037,44.0481226 31.8451554,43.470163 L32.509369,32.7759446 L31.8451554,9.46621808 Z" id="Fill-9"></path>
                        <path d="M34.7856472,8.94461282 C34.2207664,8.94461282 33.7719734,9.43607506 33.757612,10.0651467 L33.21547,32.7798763 L33.757612,43.3731811 C33.7719734,43.9970105 34.2207664,44.4884728 34.7856472,44.4884728 C35.3469377,44.4884728 35.7957307,43.9970105 35.8148792,43.3679389 L35.8148792,43.3771128 L36.4228441,32.7759446 L35.8148792,10.061215 C35.7957307,9.43607506 35.3469377,8.94461282 34.7856472,8.94461282 L34.7856472,8.94461282 Z" id="Fill-10"></path>
                        <path d="M38.7039094,9.68639316 C38.0959445,9.68639316 37.6052641,10.2197935 37.5956898,10.894735 L37.1002224,32.7798763 L37.5956898,43.3115845 C37.6052641,43.9812837 38.0959445,44.5094418 38.7039094,44.5094418 C39.3118743,44.5094418 39.7977676,43.9812837 39.8121289,43.3011 L39.8121289,43.3115845 L40.3674355,32.7798763 L39.8121289,10.894735 C39.7977676,10.2197935 39.3118743,9.68639316 38.7039094,9.68639316 L38.7039094,9.68639316 Z" id="Fill-11"></path>
                        <path d="M43.3091241,5.6629556 C43.1212294,5.52534617 42.8926442,5.44278052 42.6544847,5.44278052 C42.4151284,5.44278052 42.1961174,5.52010391 42.0130099,5.65247107 C41.6862886,5.88837295 41.4708679,6.28809558 41.4660808,6.73761971 L41.4624904,6.98400611 L41.0136974,32.7759446 C41.0136974,32.7903608 41.4660808,43.2447457 41.4660808,43.2447457 L41.4660808,43.2853732 C41.4804422,43.5776294 41.5833654,43.8489166 41.7425373,44.0638494 C41.9615483,44.3456211 42.2894664,44.5291003 42.6544847,44.5291003 C42.9764189,44.5291003 43.2708271,44.3862486 43.4814606,44.1503468 C43.6968812,43.9157554 43.8369047,43.5920456 43.8416918,43.2342611 L43.8883663,42.2002246 L44.3419464,32.7798763 L43.8416918,6.73761971 C43.8321175,6.29333784 43.621484,5.89885748 43.3091241,5.6629556 L43.3091241,5.6629556 Z" id="Fill-12"></path>
                        <path d="M47.2309766,3.19515986 C47.0394916,3.06803496 46.8192838,2.99595383 46.5859115,2.99595383 C46.281929,2.99595383 46.0018822,3.11390477 45.7864615,3.3131108 C45.5016276,3.56867117 45.31852,3.952667 45.3137329,4.38384321 L45.3137329,4.5266949 L44.7955265,32.7851186 L45.061212,38.007724 L45.3137329,43.0914094 C45.3233071,43.8489166 45.8941718,44.4675037 46.5859115,44.4675037 C47.272864,44.4675037 47.8437287,43.8489166 47.8521062,43.0809249 L47.8521062,43.0966517 L48.4133966,32.7851186 L47.8521062,4.37860094 C47.8437287,3.87665417 47.5959949,3.436304 47.2309766,3.19515986 L47.2309766,3.19515986 Z" id="Fill-13"></path>
                        <path d="M82.0968082,19.3426433 C80.5206471,19.3426433 79.0150962,19.6899433 77.6459783,20.3203255 C76.7244566,8.95509735 68.0250529,0.0419381114 57.4131925,0.0419381114 C54.8137834,0.0419381114 52.2849843,0.600239219 50.0446096,1.54646786 C49.1757463,1.91604746 48.9459643,2.29480103 48.9375869,3.03133911 L48.9375869,43.0494713 C48.9459643,43.817463 49.4928934,44.4216339 50.1810427,44.493715 C50.2133558,44.4989573 82.0968082,44.493715 82.0968082,44.493715 C88.4588979,44.493715 93.6110417,38.9133251 93.6110417,31.9463563 C93.6110417,24.9833193 88.4541108,19.3426433 82.0968082,19.3426433 L82.0968082,19.3426433 Z" id="Fill-14"></path>
                    </g>
                </g>
            </g>
        </g>
    </g>
</svg>