<?xml version="1.0" encoding="UTF-8" standalone="no"?>
<svg width="68px" height="48px" viewBox="0 0 68 48" version="1.1" xmlns="http://www.w3.org/2000/svg" xmlns:xlink="http://www.w3.org/1999/xlink">
    <!-- Generator: Sketch 3.8.3 (29802) - http://www.bohemiancoding.com/sketch -->
    <title>youtube</title>
    <desc>Created with Sketch.</desc>
    <defs>
        <polygon id="path-1" points="0.00392605158 47.3123806 66.8377564 47.3123806 66.8377564 0.0379715187 0.00392605158 0.0379715187"></polygon>
    </defs>
    <g id="Page-1" stroke="none" stroke-width="1" fill="none" fill-rule="evenodd">
        <g id="BBC-1008+" transform="translate(-354.000000, -3033.000000)">
            <g id="Social" transform="translate(181.000000, 3027.000000)">
                <g id="Youtube" transform="translate(169.600000, 6.000000)">
                    <g id="youtube" transform="translate(4.000000, 0.000000)">
                        <mask id="mask-2" fill="white">
                            <use xlink:href="#path-1"></use>
                        </mask>
                        <g id="Clip-2"></g>
                        <polyline id="Fill-1" fill="#DFDEDA" mask="url(#mask-2)" points="42.3533938 24.1455425 26.5155708 13.5092397 44.5754081 22.9856673 42.3533938 24.1455425"></polyline>
                        <path d="M26.5186462,32.3962863 L26.5155708,13.5092397 L44.5754081,22.9856673 L26.5186462,32.3962863 L26.5186462,32.3962863 Z M66.1703276,10.2373057 C66.1703276,10.2373057 65.5172944,5.60510946 63.5131759,3.56524263 C60.971581,0.887954422 58.1227071,0.8746611 56.816248,0.717971003 C47.4632808,0.0379715187 33.4333392,0.0379715187 33.4333392,0.0379715187 L33.4042864,0.0379715187 C33.4042864,0.0379715187 19.3746719,0.0379715187 10.0213775,0.717971003 C8.71485299,0.8746611 5.86702604,0.887954422 3.32451504,3.56524263 C1.32052745,5.60510946 0.668410281,10.2373057 0.668410281,10.2373057 C0.668410281,10.2373057 0,15.6770383 0,21.1167052 L0,26.2164052 C0,31.6560062 0.668410281,37.095673 0.668410281,37.095673 C0.668410281,37.095673 1.32052745,41.7279351 3.32451504,43.7678019 C5.86702604,46.4451559 9.20678725,46.3604603 10.6943028,46.6410679 C16.0413887,47.1567435 33.4188782,47.3163292 33.4188782,47.3163292 C33.4188782,47.3163292 47.4632808,47.295073 56.816248,46.6151393 C58.1227071,46.4583834 60.971581,46.4451559 63.5131759,43.7678019 C65.5172944,41.7279351 66.1703276,37.095673 66.1703276,37.095673 C66.1703276,37.095673 66.8377564,31.6560062 66.8377564,26.2164052 L66.8377564,21.1167052 C66.8377564,15.6770383 66.1703276,10.2373057 66.1703276,10.2373057 L66.1703276,10.2373057 Z" id="Fill-3" fill="#FFFFFF" mask="url(#mask-2)"></path>
                    </g>
                </g>
            </g>
        </g>
    </g>
</svg>